<svg viewBox="0 0 141 141" fill="none" xmlns="http://www.w3.org/2000/svg">
<g clip-path="url(#clip0_160_4351)">
<path d="M65.0748 23.8213C60.6961 34.2861 48.1658 38.9953 48.1658 38.9953C48.1658 38.9953 42.7406 26.7404 47.1193 16.2756C51.4981 5.81074 64.0283 1.10156 64.0283 1.10156C64.0283 1.10156 69.4535 13.3564 65.0748 23.8213Z" fill="#F3A812"/>
<path d="M65.0747 23.8213C60.696 34.2861 48.1657 38.9953 48.1657 38.9953C48.1657 38.9953 47.9179 38.4445 47.5874 37.4807C51.6356 35.1398 57.2261 30.8988 59.8698 24.6199C63.3397 16.3582 60.696 7.02246 59.4017 3.41484C62.0729 1.84512 64.0558 1.10156 64.0558 1.10156C64.0558 1.10156 69.481 13.3564 65.0747 23.8213Z" fill="#EEE8DB"/>
<path d="M27.7318 29.4393C35.0021 38.1416 48.3585 38.9678 48.3585 38.9678C48.3585 38.9678 49.9283 25.6664 42.658 16.9641C35.4152 8.23418 22.0312 7.43555 22.0312 7.43555C22.0312 7.43555 20.4615 20.7369 27.7318 29.4393Z" fill="#F3A812"/>
<path d="M48.4687 37.343C48.4412 38.3619 48.3585 38.9678 48.3585 38.9678C48.3585 38.9678 35.0021 38.1416 27.7318 29.4393C20.4615 20.7369 22.0312 7.43555 22.0312 7.43555C22.0312 7.43555 24.1517 7.5457 27.1259 8.26172C26.9607 12.0621 27.2085 21.7834 32.9367 28.6682C37.3429 33.9006 43.9248 36.2965 48.4687 37.343Z" fill="#EEE8DB"/>
<path d="M78.1835 126.569L96.1665 14.7883L116.242 9.55585C118.308 9.03261 119.547 6.9121 118.996 4.84667C118.446 2.78124 116.353 1.54198 114.287 2.09277L91.7603 7.95859C90.2732 8.34413 89.1716 9.58339 88.9237 11.0705L70.4175 126.184L78.1835 126.569Z" fill="#EEE8DB"/>
<path d="M116.242 9.5834L96.1665 14.7883L78.1835 126.542L70.4175 126.184L70.8306 123.54L74.7411 123.733L92.3386 14.4027C92.5864 12.9156 93.6604 11.7039 95.12 11.3184L112.58 6.77441C114.618 6.25117 116.022 4.26836 115.609 2.20293C115.609 2.12031 115.582 2.0377 115.554 1.95508C117.151 2.06523 118.583 3.19434 118.996 4.81914C119.52 6.93965 118.28 9.06016 116.242 9.5834Z" fill="#F3A812"/>
<path d="M99.471 47.4502H41.3636C34.5339 49.7359 29.5769 56.1801 29.5769 63.7809V127.974C29.5769 134.556 34.9195 139.899 41.5013 139.899H99.3609C105.943 139.899 111.285 134.556 111.285 127.974V63.7809C111.258 56.1801 106.328 49.7359 99.471 47.4502Z" fill="#F3A812"/>
<path d="M111.258 63.7809V127.974C111.258 134.556 105.915 139.899 99.3334 139.899H90.3557C96.9375 139.899 102.28 134.556 102.28 127.974V63.7809C102.28 56.1801 97.3506 49.7359 90.5209 47.4502H99.4987C106.328 49.7359 111.258 56.1801 111.258 63.7809Z" fill="#F3A812"/>
<path d="M50.4515 139.899H41.4738C34.8919 139.899 29.5769 134.556 29.5769 127.974V63.7809C29.5769 56.1801 34.5064 49.7359 41.3636 47.4502H50.3414C43.4841 49.7359 38.5546 56.1801 38.5546 63.7809V127.974C38.5546 134.556 43.8697 139.899 50.4515 139.899Z" fill="#F3A812"/>
<path d="M38.5547 65.6807V127.974C38.5547 129.599 39.8766 130.921 41.5014 130.921H99.3609C100.986 130.921 102.308 129.599 102.308 127.974V65.6807H38.5547Z" fill="#EEE8DB"/>
<path d="M102.28 65.6807V127.974C102.28 129.599 100.958 130.948 99.3334 130.948H90.3557C91.9805 130.948 93.3024 129.626 93.3024 127.974V65.6807H102.28Z" fill="#EEE8DB"/>
<path d="M50.4515 130.921H41.4738C39.849 130.921 38.5271 129.599 38.5271 127.946V65.6807H47.5048V127.974C47.5324 129.599 48.8267 130.921 50.4515 130.921Z" fill="#EEE8DB"/>
<path d="M104.621 41.226C104.621 44.6684 101.839 47.4498 98.3971 47.4498H42.4377C38.9953 47.4498 36.2139 44.6684 36.2139 41.226C36.2139 39.491 36.9299 37.9488 38.059 36.8197C39.1881 35.6906 40.7303 34.9746 42.4652 34.9746H98.3971C101.812 34.9746 104.621 37.7836 104.621 41.226Z" fill="#F3A812"/>
<path d="M104.621 41.226C104.621 44.6684 101.84 47.4498 98.3972 47.4498H89.4194C92.8618 47.4498 95.6433 44.6684 95.6433 41.226C95.6433 37.7836 92.8618 34.9746 89.4194 34.9746H98.3972C101.812 34.9746 104.621 37.7836 104.621 41.226Z" fill="#EEE8DB"/>
<path d="M51.4154 47.4498H42.4377C38.9953 47.4498 36.2139 44.6684 36.2139 41.226C36.2139 39.491 36.9299 37.9488 38.059 36.8197C39.1881 35.6906 40.7303 34.9746 42.4652 34.9746H51.443C49.7355 34.9746 48.1658 35.6631 47.0367 36.8197C45.9076 37.9488 45.1916 39.491 45.1916 41.226C45.1916 44.6684 47.973 47.4498 51.4154 47.4498Z" fill="#EEE8DB"/>
<path d="M102.28 64.5791H38.5547C37.9488 64.5791 37.4531 65.0748 37.4531 65.6807V127.974C37.4531 130.205 39.2707 132.022 41.5014 132.022H99.3609C101.592 132.022 103.409 130.205 103.409 127.974V65.6807C103.382 65.0748 102.886 64.5791 102.28 64.5791ZM101.179 127.974C101.179 128.993 100.352 129.819 99.3334 129.819H41.4738C40.4549 129.819 39.6287 128.993 39.6287 127.974V66.7822H101.179V127.974Z" fill="#333333"/>
<path d="M20.9571 7.2977L20.8576 7.28775C20.8569 7.29529 20.8559 7.30517 20.8546 7.31737C20.8096 7.75502 20.4586 11.1672 21.0025 15.5785C21.5613 20.1115 23.0662 25.7096 26.8287 30.219C29.5104 33.4481 32.9481 35.6195 36.2827 37.0829C35.4614 38.2912 35.0122 39.7322 35.0122 41.2258C35.0122 43.8155 36.3431 46.0854 38.3542 47.4121C32.2956 50.5407 28.3753 56.8065 28.3753 63.7803V127.974C28.3753 135.217 34.2584 141.1 41.5013 141.1H99.3609C106.604 141.1 112.487 135.217 112.487 127.974V63.7803C112.487 56.8065 108.567 50.5407 102.508 47.4121C104.519 46.0854 105.85 43.8155 105.85 41.2258C105.85 37.1228 102.528 33.7729 98.4245 33.7729H94.3558L97.2187 15.7774L116.543 10.7543L116.518 10.6575L116.543 10.7542C119.241 10.0516 120.841 7.27018 120.167 4.57462L120.167 4.57392C119.465 1.84843 116.711 0.247423 113.987 0.949499L113.986 0.949562L91.4595 6.81538L91.4847 6.91216L91.4594 6.81539C89.521 7.32109 88.0598 8.92262 87.7507 10.9175L84.0741 33.7729H58.9278C61.8608 31.2319 64.617 28.0057 66.1859 24.273L66.1859 24.2729C68.4545 18.8642 68.2455 13.073 67.4452 8.57452C66.6657 4.19324 65.3235 1.0287 65.1508 0.62141C65.1461 0.610394 65.1423 0.601395 65.1394 0.594444L65.1394 0.594406L65.1376 0.59044C64.8695 0.0244847 64.2109 -0.279278 63.6068 -0.0384225C63.331 0.0633831 60.0708 1.31994 56.3124 3.89677C52.5487 6.47722 48.2767 10.3875 46.0081 15.7961L46.1003 15.8348L46.0081 15.7961C45.6761 16.5878 45.3912 17.4031 45.1534 18.2855C44.6873 17.5559 44.1749 16.8698 43.6167 16.1847L43.616 16.1838C39.8534 11.6743 34.6212 9.19485 30.2641 7.83906C25.9067 6.4832 22.4145 6.24806 22.1187 6.23395M20.9571 7.2977L20.8576 7.28822C20.9183 6.65052 21.5209 6.20413 22.1187 6.23395M20.9571 7.2977C21.0122 6.71938 21.563 6.3063 22.1138 6.33384M20.9571 7.2977C20.9564 7.30517 20.9554 7.315 20.9541 7.32713C20.8634 8.2093 19.5166 21.2992 26.9056 30.1551C29.5794 33.3746 33.01 35.5399 36.3406 36.9991L22.1138 6.33384M22.1187 6.23395C22.1187 6.23396 22.1187 6.23396 22.1188 6.23396L22.1138 6.33384M22.1187 6.23395C22.1186 6.23395 22.1186 6.23395 22.1185 6.23395L22.1138 6.33384M86.5073 33.7729H91.8953L94.9932 14.6099C94.9932 14.6094 94.9933 14.6089 94.9934 14.6085C95.0547 14.1532 95.4163 13.7649 95.8652 13.6452L95.8657 13.6451L115.941 8.41274L86.5073 33.7729ZM86.5073 33.7729L90.1238 11.2792L90.124 11.2785C90.2831 10.2441 91.0528 9.39468 92.0609 9.12937L114.588 3.29118L114.588 3.29107C115.995 2.91949 117.454 3.74192 117.825 5.20186L117.826 5.20273C118.197 6.60792 117.349 8.04085 115.942 8.41265L86.5073 33.7729ZM48.2299 16.7559L48.2304 16.7547C49.9426 12.673 53.0059 9.48432 56.0172 7.14605C58.9628 4.85875 61.8531 3.38939 63.3654 2.69684C63.9349 4.26913 64.9174 7.36688 65.3541 11.0754C65.8004 14.8661 65.6757 19.2877 63.9636 23.3694C62.0235 27.9872 58.3914 31.4105 55.0733 33.8004H51.6484L59.0247 16.2339C59.0249 16.2334 59.0251 16.233 59.0253 16.2326C59.2956 15.6299 58.9952 14.9098 58.3934 14.6684C57.7642 14.3994 57.072 14.699 56.8306 15.3011C56.8305 15.3014 56.8304 15.3017 56.8303 15.302L49.6397 32.4841C49.3898 29.2773 48.6856 25.3248 46.9466 21.5196C47.167 19.7774 47.6038 18.1986 48.2299 16.7559ZM23.7165 17.3486C23.0413 13.6772 23.0662 10.4291 23.1447 8.76014C24.7988 8.97609 27.9968 9.52381 31.4866 10.8371C35.0541 12.1796 38.9197 14.3196 41.755 17.7165L41.755 17.7166C45.3763 22.0457 46.9186 28.033 47.207 33.7729H45.5963L33.124 18.8281C33.1239 18.828 33.1239 18.8279 33.1238 18.8278C32.7019 18.3158 31.9503 18.2574 31.441 18.6768C30.9288 19.0986 30.8703 19.8504 31.2897 20.3597L31.2901 20.3602L42.4719 33.7729H42.4376C40.8377 33.7729 39.3199 34.2907 38.0726 35.1914C34.7643 33.8454 31.2782 31.8202 28.6622 28.6866C25.8269 25.2897 24.4066 21.1015 23.7165 17.3486ZM99.2636 48.6512H99.2891C105.739 50.8724 110.056 56.9436 110.056 63.7803V127.974C110.056 133.895 105.254 138.697 99.3333 138.697H41.4737C35.5804 138.697 30.7509 133.894 30.7509 127.974V63.7803C30.7509 56.9436 35.0681 50.8724 41.518 48.6512H41.5433H41.5862H41.6299H41.6744H41.7198H41.766H41.813H41.8608H41.9094H41.9588H42.009H42.06H42.1118H42.1644H42.2178H42.272H42.3269H42.3827H42.4392H42.4965H42.5545H42.6133H42.6729H42.7333H42.7944H42.8562H42.9188H42.9822H43.0463H43.1111H43.1767H43.243H43.31H43.3778H43.4463H43.5155H43.5854H43.656H43.7274H43.7994H43.8722H43.9456H44.0198H44.0946H44.1702H44.2464H44.3233H44.4009H44.4792H44.5581H44.6378H44.718H44.799H44.8806H44.9629H45.0458H45.1294H45.2136H45.2985H45.384H45.4702H45.557H45.6444H45.7325H45.8211H45.9104H46.0004H46.0909H46.1821H46.2738H46.3662H46.4592H46.5527H46.6469H46.7417H46.837H46.9329H47.0295H47.1266H47.2243H47.3225H47.4213H47.5207H47.6207H47.7212H47.8223H47.9239H48.0261H48.1288H48.2321H48.3359H48.4402H48.5451H48.6505H48.7565H48.8629H48.9699H49.0774H49.1855H49.294H49.4031H49.5126H49.6227H49.7332H49.8443H49.9558H50.0678H50.1803H50.2933H50.4068H50.5208H50.6352H50.7501H50.8655H50.9813H51.0976H51.2143H51.3315H51.4492H51.5672H51.6858H51.8048H51.9242H52.044H52.1643H52.285H52.4061H52.5277H52.6496H52.772H52.8948H53.018H53.1416H53.2656H53.39H53.5148H53.64H53.7656H53.8915H54.0179H54.1446H54.2717H54.3992H54.527H54.6552H54.7838H54.9127H55.042H55.1716H55.3016H55.4319H55.5626H55.6936H55.8249H55.9566H56.0886H56.2209H56.3536H56.4865H56.6198H56.7534H56.8874H57.0216H57.1561H57.2909H57.426H57.5615H57.6972H57.8331H57.9694H58.106H58.2428H58.3799H58.5173H58.6549H58.7928H58.931H59.0694H59.2081H59.3471H59.4862H59.6257H59.7653H59.9052H60.0454H60.1858H60.3264H60.4672H60.6082H60.7495H60.891H61.0327H61.1746H61.3167H61.459H61.6015H61.7442H61.8871H62.0302H62.1735H62.3169H62.4606H62.6044H62.7484H62.8925H63.0368H63.1813H63.326H63.4708H63.6157H63.7608H63.9061H64.0515H64.197H64.3427H64.4885H64.6344H64.7805H64.9267H65.073H65.2194H65.366H65.5126H65.6594H65.8063H65.9532H66.1003H66.2474H66.3947H66.542H66.6895H66.837H66.9846H67.1322H67.28H67.4278H67.5756H67.7236H67.8715H68.0196H68.1677H68.3158H68.464H68.6123H68.7605H68.9088H69.0572H69.2056H69.354H69.5024H69.6508H69.7993H69.9477H70.0962H70.2447H70.3932H70.5417H70.6902H70.8387H70.9871H71.1356H71.2841H71.4325H71.5809H71.7293H71.8776H72.0259H72.1742H72.3225H72.4707H72.6188H72.7669H72.915H73.063H73.2109H73.3588H73.5066H73.6544H73.802H73.9496H74.0971H74.2446H74.3919H74.5392H74.6864H74.8335H74.9805H75.1274H75.2741H75.4208H75.5674H75.7138H75.8602H76.0064H76.1525H76.2984H76.4443H76.59H76.7355H76.8809H77.0262H77.1714H77.3163H77.4612H77.6059H77.7504H77.8947H78.0389H78.1829H78.3268H78.4704H78.6139H78.7572H78.9004H79.0433H79.1861H79.3286H79.471H79.6131H79.755H79.8968H80.0383H80.1796H80.3207H80.4616H80.6022H80.7426H80.8828H81.0228H81.1625H81.302H81.4412H81.5802H81.7189H81.8574H81.9956H82.1336H82.2712H82.4087H82.5458H82.6827H82.8193H82.9557H83.0917H83.2275H83.3629H83.4981H83.633H83.7676H83.9019H84.0358H84.1695H84.3028H84.4359H84.5686H84.701H84.833H84.9648H85.0962H85.2273H85.358H85.4884H85.6184H85.7481H85.8775H86.0065H86.1351H86.2634H86.3913H86.5188H86.646H86.7728H86.8992H87.0252H87.1509H87.2761H87.401H87.5255H87.6496H87.7733H87.8965H88.0194H88.1419H88.2639H88.3855H88.5068H88.6275H88.7479H88.8678H88.9873H89.1064H89.225H89.3432H89.4609H89.5782H89.695H89.8114H89.9273H90.0428H90.1577H90.2723H90.3863H90.4999H90.613H90.7256H90.8377H90.9493H91.0605H91.1711H91.2813H91.3909H91.5001H91.6087H91.7168H91.8244H91.9315H92.0381H92.1442H92.2497H92.3547H92.4591H92.563H92.6664H92.7692H92.8715H92.9733H93.0744H93.1751H93.2751H93.3746H93.4736H93.5719H93.6697H93.7669H93.8636H93.9596H94.0551H94.15H94.2442H94.3379H94.431H94.5235H94.6154H94.7066H94.7973H94.8874H94.9768H95.0656H95.1538H95.2413H95.3282H95.4145H95.5001H95.5851H95.6695H95.7532H95.8363H95.9187H96.0004H96.0815H96.1619H96.2417H96.3207H96.3991H96.4769H96.5539H96.6303H96.7059H96.7809H96.8552H96.9288H97.0017H97.0739H97.1454H97.2162H97.2862H97.3556H97.4242H97.4921H97.5593H97.6257H97.6914H97.7564H97.8206H97.8841H97.9469H98.0089H98.0701H98.1306H98.1903H98.2493H98.3075H98.3649H98.4216H98.4775H98.5326H98.5869H98.6405H98.6932H98.7452H98.7963H98.8467H98.8963H98.945H98.993H99.0401H99.0865H99.132H99.1767H99.2205H99.2636ZM98.397 36.176C101.178 36.176 103.419 38.4438 103.419 41.2258C103.419 44.0068 101.151 46.2481 98.397 46.2481H42.4376C39.6567 46.2481 37.4153 43.9799 37.4153 41.2258C37.4153 38.5247 39.6037 36.176 42.4376 36.176H98.397Z" fill="#333333" stroke="black" stroke-width="0.2"/>
</g>
<defs>
<clipPath id="clip0_160_4351">
<rect width="141" height="141" fill="white"/>
</clipPath>
</defs>
</svg>
