<svg width="110" height="74" viewBox="0 0 110 74" fill="none" xmlns="http://www.w3.org/2000/svg">
<path d="M39.7935 15.1086C39.7935 19.3334 36.4019 22.7427 32.2373 22.7427C28.0725 22.7427 24.6809 19.3334 24.6809 15.1086C24.6809 10.8839 28.0724 7.47461 32.2373 7.47461C36.4019 7.47461 39.7935 10.8839 39.7935 15.1086Z" fill="#F3A812" stroke="black" stroke-width="2"/>
<mask id="path-2-inside-1_160_4420" fill="white">
<path fill-rule="evenodd" clip-rule="evenodd" d="M22.2201 43.4631C20.8782 45.6281 18.0504 46.2874 15.9043 44.9339C13.7577 43.5801 13.1052 40.7267 14.4468 38.5606L14.4553 38.547L14.4716 38.5209L14.5268 38.4327C14.5735 38.3587 14.6397 38.2545 14.7235 38.124C14.8908 37.8639 15.1293 37.498 15.4234 37.0617C16.0072 36.1956 16.8306 35.0204 17.7655 33.8269C18.6789 32.6607 19.8021 31.3435 20.9894 30.2752C21.5828 29.7412 22.2986 29.1719 23.106 28.7149C23.8675 28.2839 25.0583 27.7529 26.5121 27.7529H37.9624C39.4165 27.7529 40.6073 28.2839 41.3688 28.7149C42.1761 29.1719 42.892 29.7412 43.4854 30.2752C44.6727 31.3435 45.7958 32.6607 46.7093 33.8269C47.6443 35.0204 48.4677 36.1956 49.0514 37.0617C49.3454 37.498 49.5839 37.8639 49.7512 38.124C49.8351 38.2545 49.9011 38.3587 49.9479 38.4327L50.0033 38.5209L50.0196 38.547L50.0267 38.5585C50.0267 38.5585 49.9479 38.4327 50.0281 38.5606C51.3696 40.7267 50.7169 43.5801 48.5706 44.9339C46.4242 46.2874 43.597 45.6295 42.2552 43.4641L42.2485 43.4534L42.2133 43.397C42.1803 43.3447 42.1287 43.2636 42.0606 43.1576C42.0054 43.0716 41.9394 42.9696 41.8635 42.8538V48.5978L43.5211 66.1617C43.7571 68.6624 41.9719 70.8961 39.4999 71.1928C37.0281 71.4895 34.7734 69.741 34.4211 67.2541L32.0834 50.7413L29.7457 67.2541C29.3937 69.741 27.1389 71.4895 24.6669 71.1928C22.195 70.8961 20.4098 68.6624 20.6458 66.1617L22.5687 45.7877H22.6119V42.8529C22.5358 42.9689 22.4695 43.0714 22.414 43.1576C22.346 43.2636 22.2946 43.3447 22.2616 43.397L22.2262 43.4534L22.2201 43.4631Z"/>
</mask>
<path fill-rule="evenodd" clip-rule="evenodd" d="M22.2201 43.4631C20.8782 45.6281 18.0504 46.2874 15.9043 44.9339C13.7577 43.5801 13.1052 40.7267 14.4468 38.5606L14.4553 38.547L14.4716 38.5209L14.5268 38.4327C14.5735 38.3587 14.6397 38.2545 14.7235 38.124C14.8908 37.8639 15.1293 37.498 15.4234 37.0617C16.0072 36.1956 16.8306 35.0204 17.7655 33.8269C18.6789 32.6607 19.8021 31.3435 20.9894 30.2752C21.5828 29.7412 22.2986 29.1719 23.106 28.7149C23.8675 28.2839 25.0583 27.7529 26.5121 27.7529H37.9624C39.4165 27.7529 40.6073 28.2839 41.3688 28.7149C42.1761 29.1719 42.892 29.7412 43.4854 30.2752C44.6727 31.3435 45.7958 32.6607 46.7093 33.8269C47.6443 35.0204 48.4677 36.1956 49.0514 37.0617C49.3454 37.498 49.5839 37.8639 49.7512 38.124C49.8351 38.2545 49.9011 38.3587 49.9479 38.4327L50.0033 38.5209L50.0196 38.547L50.0267 38.5585C50.0267 38.5585 49.9479 38.4327 50.0281 38.5606C51.3696 40.7267 50.7169 43.5801 48.5706 44.9339C46.4242 46.2874 43.597 45.6295 42.2552 43.4641L42.2485 43.4534L42.2133 43.397C42.1803 43.3447 42.1287 43.2636 42.0606 43.1576C42.0054 43.0716 41.9394 42.9696 41.8635 42.8538V48.5978L43.5211 66.1617C43.7571 68.6624 41.9719 70.8961 39.4999 71.1928C37.0281 71.4895 34.7734 69.741 34.4211 67.2541L32.0834 50.7413L29.7457 67.2541C29.3937 69.741 27.1389 71.4895 24.6669 71.1928C22.195 70.8961 20.4098 68.6624 20.6458 66.1617L22.5687 45.7877H22.6119V42.8529C22.5358 42.9689 22.4695 43.0714 22.414 43.1576C22.346 43.2636 22.2946 43.3447 22.2616 43.397L22.2262 43.4534L22.2201 43.4631Z" fill="#F3A812"/>
<path d="M22.2201 43.4631L20.526 42.4001L20.5202 42.4095L22.2201 43.4631ZM15.9043 44.9339L16.9712 43.2422L16.9712 43.2422L15.9043 44.9339ZM14.4468 38.5606L12.7482 37.5048L12.7465 37.5075L14.4468 38.5606ZM14.4553 38.547L12.7574 37.49L12.7567 37.4912L14.4553 38.547ZM14.4716 38.5209L12.7774 37.4579L12.7737 37.4638L14.4716 38.5209ZM14.5268 38.4327L12.8355 37.3653L12.8327 37.3698L14.5268 38.4327ZM14.7235 38.124L13.0414 37.0422L13.0406 37.0433L14.7235 38.124ZM15.4234 37.0617L13.765 35.9438L13.765 35.9439L15.4234 37.0617ZM17.7655 33.8269L19.3399 35.0603L19.34 35.0602L17.7655 33.8269ZM20.9894 30.2752L19.6516 28.7884L19.6515 28.7885L20.9894 30.2752ZM23.106 28.7149L24.0911 30.4555L24.0912 30.4554L23.106 28.7149ZM41.3688 28.7149L40.3836 30.4554L40.3836 30.4555L41.3688 28.7149ZM43.4854 30.2752L42.1475 31.7618L42.1476 31.7619L43.4854 30.2752ZM46.7093 33.8269L45.1348 35.0602L45.1349 35.0604L46.7093 33.8269ZM49.0514 37.0617L50.71 35.9441L50.7098 35.9439L49.0514 37.0617ZM49.7512 38.124L48.069 39.2058L48.0691 39.2058L49.7512 38.124ZM49.9479 38.4327L51.6405 37.3674L51.6387 37.3645L49.9479 38.4327ZM50.0033 38.5209L51.7011 37.4636L51.696 37.4555L50.0033 38.5209ZM50.0196 38.547L51.7237 37.5001L51.7173 37.4898L50.0196 38.547ZM50.0267 38.5585L48.3319 39.6205L51.7308 37.5117L50.0267 38.5585ZM50.0281 38.5606L51.7284 37.5076L51.7224 37.4979L50.0281 38.5606ZM48.5706 44.9339L49.6374 46.6256L49.6375 46.6255L48.5706 44.9339ZM42.2552 43.4641L43.9553 42.4106L43.9512 42.404L42.2552 43.4641ZM42.2485 43.4534L43.9445 42.3934L43.9442 42.3929L42.2485 43.4534ZM42.2133 43.397L43.9089 42.3364L43.9043 42.3292L42.2133 43.397ZM42.0606 43.1576L40.3776 44.2382L40.3781 44.2389L42.0606 43.1576ZM41.8635 42.8538L43.5368 41.7583L39.8635 36.1479V42.8538H41.8635ZM41.8635 48.5978H39.8635V48.692L39.8724 48.7857L41.8635 48.5978ZM43.5211 66.1617L41.53 66.3496L41.53 66.3496L43.5211 66.1617ZM39.4999 71.1928L39.2616 69.207L39.2616 69.207L39.4999 71.1928ZM34.4211 67.2541L32.4409 67.5345L32.4409 67.5346L34.4211 67.2541ZM32.0834 50.7413L34.0637 50.4609H30.1031L32.0834 50.7413ZM29.7457 67.2541L27.7654 66.9738L27.7654 66.9738L29.7457 67.2541ZM24.6669 71.1928L24.4285 73.1785H24.4285L24.6669 71.1928ZM20.6458 66.1617L22.6369 66.3496L20.6458 66.1617ZM22.5687 45.7877V43.7877H20.7485L20.5775 45.5997L22.5687 45.7877ZM22.6119 45.7877V47.7877H24.6119V45.7877H22.6119ZM22.6119 42.8529H24.6119V36.1527L20.9391 41.7565L22.6119 42.8529ZM22.414 43.1576L20.7319 42.0757L20.731 42.0772L22.414 43.1576ZM22.2616 43.397L20.5708 42.3286L20.5669 42.3349L22.2616 43.397ZM22.2262 43.4534L23.9203 44.5165L23.9209 44.5155L22.2262 43.4534ZM20.5202 42.4095C19.7589 43.6376 18.1707 43.9987 16.9712 43.2422L14.8374 46.6255C17.9301 48.5761 21.9975 47.6186 23.92 44.5168L20.5202 42.4095ZM16.9712 43.2422C15.7598 42.4783 15.3798 40.8525 16.1471 39.6137L12.7465 37.5075C10.8306 40.601 11.7557 44.682 14.8374 46.6256L16.9712 43.2422ZM16.1454 39.6164L16.1539 39.6028L12.7567 37.4912L12.7482 37.5048L16.1454 39.6164ZM16.1531 39.604L16.1694 39.5779L12.7737 37.4638L12.7574 37.49L16.1531 39.604ZM16.1657 39.5838L16.221 39.4957L12.8327 37.3698L12.7774 37.4579L16.1657 39.5838ZM16.2181 39.5002C16.2622 39.4304 16.3256 39.3305 16.4063 39.2048L13.0406 37.0433C12.9539 37.1784 12.8848 37.2871 12.8355 37.3653L16.2181 39.5002ZM16.4056 39.2059C16.5666 38.9556 16.7972 38.6019 17.0819 38.1795L13.765 35.9439C13.4615 36.3941 13.215 36.7722 13.0414 37.0422L16.4056 39.2059ZM17.0819 38.1795C17.6491 37.338 18.4437 36.2043 19.3399 35.0603L16.191 32.5936C15.2174 33.8365 14.3653 35.0533 13.765 35.9438L17.0819 38.1795ZM19.34 35.0602C20.2238 33.9318 21.2649 32.7178 22.3272 31.7618L19.6515 28.7885C18.3394 29.9693 17.1341 31.3897 16.191 32.5937L19.34 35.0602ZM22.3271 31.7619C22.858 31.2842 23.4541 30.816 24.0911 30.4555L22.1209 26.9744C21.1431 27.5277 20.3075 28.1982 19.6516 28.7884L22.3271 31.7619ZM24.0912 30.4554C24.7023 30.1096 25.5426 29.7529 26.5121 29.7529V25.7529C24.574 25.7529 23.0328 26.4582 22.1208 26.9744L24.0912 30.4554ZM26.5121 29.7529H37.9624V25.7529H26.5121V29.7529ZM37.9624 29.7529C38.9322 29.7529 39.7726 30.1096 40.3836 30.4554L42.354 26.9744C41.442 26.4582 39.9008 25.7529 37.9624 25.7529V29.7529ZM40.3836 30.4555C41.0207 30.816 41.6168 31.2843 42.1475 31.7618L44.8233 28.7886C44.1673 28.1982 43.3316 27.5277 42.3539 26.9744L40.3836 30.4555ZM42.1476 31.7619C43.2099 32.7178 44.2509 33.9318 45.1348 35.0602L48.2838 32.5937C47.3407 31.3897 46.1354 29.9693 44.8232 28.7885L42.1476 31.7619ZM45.1349 35.0604C46.0311 36.2044 46.8257 37.338 47.3929 38.1795L50.7098 35.9439C50.1096 35.0533 49.2574 33.8365 48.2837 32.5935L45.1349 35.0604ZM47.3927 38.1792C47.6775 38.6019 47.9082 38.9556 48.069 39.2058L51.4335 37.0423C51.2597 36.7721 51.0132 36.3941 50.71 35.9441L47.3927 38.1792ZM48.0691 39.2058C48.1487 39.3296 48.2114 39.4287 48.257 39.5009L51.6387 37.3645C51.5908 37.2888 51.5215 37.1793 51.4334 37.0422L48.0691 39.2058ZM48.2552 39.4981L48.3107 39.5862L51.696 37.4555L51.6405 37.3674L48.2552 39.4981ZM48.3056 39.5781L48.3219 39.6042L51.7173 37.4898L51.701 37.4636L48.3056 39.5781ZM48.3155 39.5939L48.3226 39.6054L51.7308 37.5117L51.7237 37.5001L48.3155 39.5939ZM50.0267 38.5585C51.7214 37.4966 51.7214 37.4966 51.7214 37.4966C51.7214 37.4966 51.7214 37.4966 51.7214 37.4965C51.7214 37.4965 51.7214 37.4965 51.7214 37.4965C51.7214 37.4965 51.7214 37.4965 51.7214 37.4965C51.7213 37.4964 51.7213 37.4963 51.7212 37.4962C51.7211 37.496 51.7209 37.4956 51.7206 37.4952C51.72 37.4943 51.7192 37.493 51.7182 37.4915C51.7163 37.4883 51.7135 37.4839 51.7105 37.479C51.7043 37.4692 51.6971 37.4578 51.6925 37.4504C51.6897 37.4458 51.689 37.4448 51.6895 37.4456C51.6897 37.4459 51.6903 37.4469 51.6911 37.4482C51.6915 37.4488 51.6923 37.4501 51.6934 37.4518C51.6937 37.4523 51.697 37.4576 51.7011 37.4643C51.7011 37.4644 51.71 37.479 51.7206 37.4972C51.7294 37.5124 51.7656 37.5789 51.7917 37.6308C51.438 39.8851 48.7544 40.0743 48.3907 39.7014C48.3679 39.6704 48.3379 39.6274 48.33 39.6157C48.326 39.6097 48.3196 39.6 48.3172 39.5963C48.3129 39.5897 48.3095 39.5845 48.3085 39.5829C48.3059 39.5788 48.3039 39.5756 48.3034 39.5749C48.3026 39.5736 48.3019 39.5726 48.3016 39.572C48.3001 39.5697 48.2991 39.5682 48.3005 39.5704C48.3039 39.5757 48.3136 39.5911 48.3338 39.6233L51.7224 37.4979C51.7025 37.4662 51.6919 37.4493 51.6875 37.4423C51.6869 37.4414 51.6848 37.4381 51.6828 37.4349C51.6824 37.4343 51.6817 37.4332 51.6809 37.4318C51.6803 37.431 51.6783 37.4278 51.6757 37.4237C51.6746 37.422 51.6713 37.4168 51.667 37.4102C51.6645 37.4065 51.6581 37.3968 51.6541 37.3908C51.6463 37.3791 51.6162 37.3361 51.5934 37.3051C51.2297 36.9322 48.5462 37.1214 48.1924 39.3757C48.2185 39.4276 48.2548 39.4941 48.2635 39.5093C48.2741 39.5275 48.283 39.5421 48.2831 39.5422C48.2872 39.5489 48.2905 39.5543 48.2908 39.5548C48.2919 39.5566 48.2928 39.558 48.2932 39.5587C48.2941 39.5602 48.2949 39.5614 48.2952 39.5619C48.2971 39.565 48.3001 39.5697 48.3021 39.5729C48.3071 39.581 48.3147 39.593 48.3208 39.6027C48.3239 39.6077 48.3267 39.6121 48.3287 39.6153C48.3297 39.6169 48.3305 39.6182 48.3311 39.6191C48.3313 39.6196 48.3316 39.6199 48.3317 39.6202C48.3318 39.6203 48.3318 39.6204 48.3319 39.6204C48.3319 39.6205 48.3319 39.6205 48.3319 39.6205C48.3319 39.6205 48.3319 39.6205 48.3319 39.6205C48.3319 39.6205 48.3319 39.6205 48.3319 39.6205C48.3319 39.6205 48.3319 39.6205 50.0267 38.5585ZM48.3278 39.6137C49.0949 40.8524 48.7149 42.4783 47.5036 43.2422L49.6375 46.6255C52.719 44.682 53.6443 40.6011 51.7284 37.5076L48.3278 39.6137ZM47.5038 43.2422C46.3031 43.9993 44.7159 43.6381 43.9553 42.4106L40.5551 44.5175C42.4781 47.6208 46.5453 48.5755 49.6374 46.6256L47.5038 43.2422ZM43.9512 42.404L43.9445 42.3934L40.5526 44.5135L40.5592 44.5241L43.9512 42.404ZM43.9442 42.3929L43.9089 42.3364L40.5176 44.4575L40.5529 44.514L43.9442 42.3929ZM43.9043 42.3292C43.8685 42.2724 43.8141 42.1867 43.7432 42.0764L40.3781 44.2389C40.4433 44.3404 40.492 44.4171 40.5222 44.4648L43.9043 42.3292ZM43.7436 42.0771C43.6853 41.9863 43.616 41.8793 43.5368 41.7583L40.1903 43.9493C40.2628 44.06 40.3255 44.157 40.3776 44.2382L43.7436 42.0771ZM39.8635 42.8538V48.5978H43.8635V42.8538H39.8635ZM39.8724 48.7857L41.53 66.3496L45.5123 65.9738L43.8547 48.4099L39.8724 48.7857ZM41.53 66.3496C41.6656 67.7864 40.6405 69.0415 39.2616 69.207L39.7383 73.1785C43.3033 72.7506 45.8487 69.5384 45.5123 65.9738L41.53 66.3496ZM39.2616 69.207C37.8859 69.3722 36.6033 68.3992 36.4014 66.9737L32.4409 67.5346C32.9434 71.0828 36.1703 73.6068 39.7383 73.1785L39.2616 69.207ZM36.4014 66.9738L34.0637 50.4609L30.1031 51.0216L32.4409 67.5345L36.4014 66.9738ZM30.1031 50.4609L27.7654 66.9738L31.7259 67.5345L34.0637 51.0216L30.1031 50.4609ZM27.7654 66.9738C27.5637 68.3991 26.2812 69.3722 24.9052 69.207L24.4285 73.1785C27.9966 73.6068 31.2237 71.0829 31.7259 67.5344L27.7654 66.9738ZM24.9052 69.207C23.5264 69.0415 22.5013 67.7865 22.6369 66.3496L18.6546 65.9738C18.3182 69.5384 20.8636 72.7506 24.4285 73.1785L24.9052 69.207ZM22.6369 66.3496L24.5598 45.9756L20.5775 45.5997L18.6546 65.9738L22.6369 66.3496ZM22.5687 47.7877H22.6119V43.7877H22.5687V47.7877ZM24.6119 45.7877V42.8529H20.6119V45.7877H24.6119ZM20.9391 41.7565C20.8593 41.8783 20.7899 41.9857 20.7319 42.0757L24.0961 44.2396C24.1492 44.1571 24.2123 44.0596 24.2846 43.9492L20.9391 41.7565ZM20.731 42.0772C20.6597 42.1882 20.6056 42.2736 20.5708 42.3287L23.9523 44.4653C23.9836 44.4159 24.0323 44.3389 24.0971 44.2381L20.731 42.0772ZM20.5669 42.3349L20.5315 42.3914L23.9209 44.5155L23.9563 44.459L20.5669 42.3349ZM20.5321 42.3904L20.526 42.4001L23.9142 44.5262L23.9203 44.5165L20.5321 42.3904Z" fill="black" mask="url(#path-2-inside-1_160_4420)"/>
<path d="M85.6253 15.1079C85.6253 19.3323 82.234 22.7414 78.0696 22.7414C73.9055 22.7414 70.5142 19.3323 70.5142 15.1079C70.5142 10.8837 73.9055 7.47461 78.0696 7.47461C82.234 7.47461 85.6253 10.8837 85.6253 15.1079Z" fill="#F3A812" stroke="black" stroke-width="2"/>
<path d="M67.2128 42.4547L67.213 42.4543L67.2189 42.4446L67.222 42.4397L67.222 42.4397L67.2571 42.3832L67.2575 42.3825C67.2917 42.3276 67.3443 42.2437 67.4135 42.135C67.5513 41.9182 67.7544 41.6032 68.0076 41.2233C68.1406 41.0238 68.2857 40.8091 68.441 40.583L70.2486 41.3312C69.2174 46.9018 67.0484 54.2639 65.8933 58.0173L67.2128 42.4547ZM67.2128 42.4547C66.1695 44.1569 63.9641 44.6779 62.2861 43.6312L62.2861 43.6312M67.2128 42.4547L62.2861 43.6312M62.2861 43.6312C60.6029 42.5812 60.0753 40.3459 61.1192 38.6387L61.1258 38.6279L61.1259 38.6279M62.2861 43.6312L61.1259 38.6279M95.2918 37.6772C95.2473 37.6072 95.1977 37.5297 95.1434 37.4452C94.9803 37.6192 94.8694 37.8147 94.7956 37.9925L95.2918 37.6772ZM95.2918 37.6772L94.7954 37.9929C94.7046 38.2117 94.6701 38.4035 94.6641 38.4949L95.4863 37.9859M95.2918 37.6772C95.3745 37.8074 95.44 37.9119 95.4863 37.9859M95.4863 37.9859L94.6638 38.5005C94.6623 38.5262 94.6633 38.543 94.666 38.5492C94.674 38.5656 94.6863 38.5895 94.6912 38.5985L95.5409 38.074M95.4863 37.9859L95.5409 38.074M94.4478 38.2135C94.2855 37.9584 94.0537 37.5991 93.7677 37.1698C93.1985 36.3161 92.3982 35.1615 91.4929 33.9927C90.6041 32.8456 89.5335 31.5793 88.4198 30.5658C87.8633 30.0595 87.2124 29.5388 86.4941 29.128L86.4939 29.1279C85.8123 28.7377 84.7958 28.2871 83.5784 28.2871H72.255C71.0376 28.2871 70.0211 28.7377 69.3395 29.1279L69.3393 29.128C68.6211 29.5388 67.9703 30.0595 67.4138 30.5659L67.4138 30.5659C66.2999 31.5793 65.2292 32.8456 64.3407 33.9927L64.3406 33.9928C63.4352 35.1614 62.635 36.316 62.0658 37.1696L94.4478 38.2135ZM94.4478 38.2135C94.528 38.3397 94.5917 38.4413 94.6373 38.5142C94.6377 38.5149 94.6381 38.5155 94.6385 38.5162M94.4478 38.2135L94.6385 38.5162M95.5409 38.074C95.553 38.0937 95.5602 38.1053 95.5643 38.112L94.7128 38.6361L94.7094 38.6306L94.7049 38.623L94.7049 38.6229C94.7039 38.6212 94.6984 38.6118 94.6918 38.5996L95.5409 38.074ZM94.6385 38.5162L94.6899 38.5993L94.6906 38.6003L94.7127 38.6362C95.7587 40.3436 95.2315 42.5806 93.5473 43.6312C91.8692 44.6778 89.6649 44.1575 88.6216 42.4563L88.621 42.4552L88.6139 42.4437L88.6114 42.4397L88.5764 42.3833L88.5759 42.3825C88.5417 42.3276 88.4891 42.2438 88.4199 42.135C88.2821 41.9182 88.079 41.6032 87.8257 41.2233C87.7204 41.0653 87.6075 40.898 87.4884 40.7233L85.6814 41.4817C86.7626 46.9212 88.8878 54.3499 89.9938 58.0869C90.2169 58.8405 89.7582 59.5896 89.0553 59.7376M94.6385 38.5162L65.8933 58.0174C65.6567 58.7866 66.1338 59.5622 66.8674 59.7034C75.554 61.3727 81.093 61.4122 89.0553 59.7376M89.0553 59.7376L89.2612 60.7161L89.0553 59.7376ZM61.1259 38.6279L61.1287 38.6233M61.1259 38.6279L61.1287 38.6233M61.1287 38.6233L61.1433 38.5996M61.1287 38.6233L61.1433 38.5996M61.1433 38.5996L61.1963 38.5143C61.1963 38.5142 61.1964 38.5141 61.1964 38.514C61.1965 38.514 61.1965 38.5139 61.1966 38.5138C61.241 38.4425 61.3047 38.3409 61.3854 38.2138C61.5477 37.9587 61.7795 37.5992 62.0657 37.1698L61.1433 38.5996ZM70.9515 70.2032L70.9513 70.2031C69.746 70.042 68.8332 69.0013 68.8332 67.7559V65.7668C70.6738 65.9797 72.4533 66.1304 74.2072 66.2193L73.6235 68.4013C73.6235 68.4013 73.6235 68.4014 73.6235 68.4014C73.3024 69.6013 72.1556 70.3643 70.9515 70.2032ZM82.6682 68.4012L82.6682 68.4011L82.0801 66.203C83.8357 66.1074 85.6166 65.9513 87.4582 65.7357V67.7554C87.4582 69.0008 86.5455 70.0416 85.34 70.2029C84.1358 70.3641 82.9891 69.601 82.6682 68.4012Z" fill="#F3A812" stroke="black" stroke-width="2"/>
</svg>
