<svg fill="currentColor" viewBox="0 0 37 36"  xmlns="http://www.w3.org/2000/svg">
<path d="M15.6468 2.78115C16.5449 0.0172195 20.4551 0.0172195 21.3532 2.78115L23.5516 9.54712C23.9532 10.7832 25.1051 11.6201 26.4047 11.6201L33.5189 11.6201C36.4251 11.6201 37.6334 15.3389 35.2822 17.0471L29.5268 21.2287C28.4753 21.9926 28.0353 23.3467 28.437 24.5828L30.6354 31.3488C31.5334 34.1127 28.37 36.4111 26.0188 34.7029L20.2634 30.5213C19.2119 29.7574 17.7881 29.7574 16.7366 30.5213L10.9812 34.7029C8.63003 36.4111 5.46659 34.1127 6.36465 31.3488L8.56304 24.5828C8.96467 23.3467 8.52469 21.9926 7.47323 21.2287L1.71775 17.0471C-0.633388 15.3389 0.574939 11.6201 3.48111 11.6201L10.5953 11.6201C11.8949 11.6201 13.0468 10.7832 13.4484 9.54712L15.6468 2.78115Z"  fill-rule="evenodd"
    clip-rule="evenodd" />
</svg>
