<svg width="63" height="63" viewBox="0 0 63 63" fill="none" xmlns="http://www.w3.org/2000/svg">
<circle cx="31.5" cy="31.5" r="31.5" fill="#2B3D4F"/>
<g clip-path="url(#clip0_308_598)">
<path d="M31.5 21.0938C30.6996 21.0938 29.9172 20.8564 29.2517 20.4117C28.5862 19.9671 28.0675 19.335 27.7612 18.5955C27.4549 17.8561 27.3747 17.0424 27.5309 16.2574C27.687 15.4724 28.0725 14.7513 28.6384 14.1853C29.2044 13.6193 29.9255 13.2339 30.7105 13.0778C31.4955 12.9216 32.3092 13.0018 33.0487 13.3081C33.7881 13.6144 34.4202 14.133 34.8649 14.7986C35.3095 15.4641 35.5469 16.2465 35.5469 17.0469C35.5457 18.1198 35.119 19.1485 34.3603 19.9072C33.6016 20.6659 32.5729 21.0926 31.5 21.0938Z" fill="#FAF4E6"/>
<path d="M44.2188 21.1515L44.1862 21.1601L44.1559 21.1695C44.0836 21.1898 44.0114 21.2114 43.9391 21.2338C42.5942 21.6284 36.0672 23.4683 31.4689 23.4683C27.1959 23.4683 21.2592 21.8785 19.3601 21.3386C19.1711 21.2655 18.9781 21.2033 18.782 21.1522C17.4089 20.7909 16.4695 22.1856 16.4695 23.4603C16.4695 24.7228 17.6041 25.3241 18.7495 25.7555V25.7757L25.6306 27.9249C26.3337 28.1945 26.5216 28.4698 26.6134 28.7083C26.9119 29.4736 26.6734 30.989 26.5888 31.518L26.1697 34.7699L23.8435 47.5024C23.8362 47.5371 23.8297 47.5725 23.824 47.6086L23.8073 47.7004C23.6397 48.8675 24.4967 49.9999 26.1198 49.9999C27.5362 49.9999 28.1613 49.0221 28.4323 47.6917C28.7033 46.3613 30.4558 36.3048 31.4675 36.3048C32.4792 36.3048 34.5634 47.6917 34.5634 47.6917C34.8343 49.0221 35.4594 49.9999 36.8759 49.9999C38.5033 49.9999 39.3603 48.8624 39.1884 47.6917C39.1736 47.5933 39.1553 47.4954 39.1334 47.3983L36.7754 34.7714L36.357 31.5194C36.0542 29.6253 36.2977 28.9995 36.3801 28.8528C36.3823 28.8494 36.3842 28.8457 36.3859 28.842C36.4639 28.6974 36.8195 28.3737 37.6491 28.0622L44.101 25.8068C44.1406 25.7963 44.1797 25.7837 44.218 25.7692C45.3743 25.3356 46.5305 24.7358 46.5305 23.4618C46.5305 22.1877 45.5918 20.7909 44.2188 21.1515Z" fill="#FAF4E6"/>
</g>
<defs>
<clipPath id="clip0_308_598">
<rect width="37" height="37" fill="white" transform="translate(13 13)"/>
</clipPath>
</defs>
</svg>
