<svg width="77" height="77" viewBox="0 0 77 77" fill="none" xmlns="http://www.w3.org/2000/svg">
<g clip-path="url(#clip0_160_4281)">
<path d="M26.6386 21.2373C26.6386 21.2554 26.6386 21.2749 26.6371 21.293C26.6086 25.7641 23.0202 29.3795 18.5958 29.3795C17.9131 29.3802 17.2332 29.2927 16.573 29.1193C14.9943 28.6871 13.5817 27.7911 12.5177 26.5473C11.4538 25.3034 10.7875 23.769 10.6051 22.1424C10.4228 20.5158 10.7326 18.8719 11.4947 17.4234C12.2567 15.9748 13.4359 14.7882 14.8796 14.0171C16.1292 13.3577 17.5317 13.0427 18.9433 13.1042C20.3548 13.1658 21.7245 13.6018 22.912 14.3675C24.0585 15.1092 25.0004 16.1268 25.6515 17.3271C26.3026 18.5273 26.642 19.8718 26.6386 21.2373Z" fill="#F3A812"/>
<path d="M18.5962 13.0957C18.2188 13.0962 17.8419 13.1234 17.4683 13.1771C21.3754 13.7326 24.3823 17.1284 24.3823 21.2369C24.3823 25.3456 21.3754 28.7414 17.4683 29.2968C17.8418 29.3505 18.2188 29.3777 18.5962 29.3782C23.0377 29.3782 26.6382 25.7333 26.6382 21.2369C26.6382 16.7407 23.0377 13.0957 18.5962 13.0957Z" fill="#F0F0F0"/>
<path d="M26.6371 21.2926C20.826 29.2179 17.4314 32.9022 16.4531 32.3452C16.0207 32.0989 16.0607 31.0234 16.573 29.1187C16.6001 24.6476 20.1914 21.0322 24.6144 21.0322C25.297 21.0316 25.9769 21.119 26.6371 21.2924V21.2926Z" fill="#F0F0F0"/>
<path d="M11.2533 37.5198C15.6949 37.5198 19.2955 33.8748 19.2955 29.3786C19.2955 24.8823 15.6949 21.2373 11.2533 21.2373C6.81177 21.2373 3.21118 24.8823 3.21118 29.3786C3.21118 33.8748 6.81177 37.5198 11.2533 37.5198Z" fill="#F3A812"/>
<path d="M11.2532 21.2373C10.8757 21.2378 10.4988 21.265 10.1252 21.3187C14.0324 21.8742 17.0393 25.27 17.0393 29.3786C17.0393 33.4872 14.0324 36.883 10.1252 37.4384C10.4988 37.4921 10.8758 37.5192 11.2532 37.5196C15.6947 37.5196 19.2952 33.8748 19.2952 29.3786C19.2952 24.8823 15.6947 21.2373 11.2532 21.2373Z" fill="#F0F0F0"/>
<path d="M25.9391 38.5901C30.3807 38.5901 33.9813 34.9451 33.9813 30.4489C33.9813 25.9526 30.3807 22.3076 25.9391 22.3076C21.4976 22.3076 17.897 25.9526 17.897 30.4489C17.897 34.9451 21.4976 38.5901 25.9391 38.5901Z" fill="#F3A812"/>
<path d="M25.9392 22.3076C25.5618 22.3081 25.1849 22.3352 24.8113 22.3888C28.7184 22.9444 31.7253 26.3403 31.7253 30.4489C31.7253 34.5574 28.7184 37.9534 24.8113 38.5086C25.1849 38.5623 25.5618 38.5895 25.9392 38.59C30.3807 38.59 33.9812 34.9451 33.9812 30.4489C33.9812 25.9525 30.3807 22.3076 25.9392 22.3076Z" fill="#F0F0F0"/>
<path d="M36.0644 31.2461H1.12793C2.03298 38.6982 6.43777 45.2754 12.7964 49.208C14.2883 50.1306 16.3793 51.1285 16.3793 53.1529V68.5702C16.3802 68.8421 16.2988 69.1079 16.1456 69.3326C15.9925 69.5573 15.7749 69.7303 15.5215 69.829L6.75179 73.2003C6.45296 73.317 6.20401 73.534 6.04753 73.8141C5.89105 74.0942 5.83677 74.42 5.89398 74.7357C5.9512 75.0514 6.11634 75.3374 6.36116 75.5447C6.60597 75.7521 6.91524 75.8679 7.23604 75.8724H29.9563C30.2771 75.8679 30.5864 75.7521 30.8312 75.5447C31.076 75.3374 31.2412 75.0514 31.2984 74.7357C31.3556 74.42 31.3013 74.0942 31.1448 73.8141C30.9883 73.534 30.7394 73.317 30.4406 73.2003L21.6708 69.829C21.4174 69.7303 21.1999 69.5573 21.0467 69.3326C20.8936 69.1079 20.8121 68.8421 20.813 68.5702V59.3979C20.813 57.4019 20.4418 55.3367 20.867 53.3616C21.3437 51.1468 22.8562 50.261 24.6099 49.083C30.6713 45.0112 35.1749 38.5698 36.0644 31.2461Z" fill="#F0F0F0"/>
<path d="M30.4405 73.2003L21.6708 69.829C21.4174 69.7303 21.1998 69.5573 21.0467 69.3326C20.8935 69.1079 20.8121 68.8421 20.8129 68.5702V59.3979C20.8129 57.4019 20.4418 55.3367 20.8669 53.3616C21.3437 51.1468 22.8562 50.261 24.6099 49.083C30.6712 45.0112 35.1748 38.5698 36.0644 31.2461H33.8085C32.9191 38.5698 28.4153 45.0112 22.354 49.083C20.6004 50.261 19.088 51.1468 18.6111 53.3616C18.1859 55.3367 18.5569 57.4019 18.5569 59.3979V68.5702C18.5561 68.8421 18.6376 69.1079 18.7907 69.3326C18.9439 69.5573 19.1615 69.7304 19.4149 69.829L28.1846 73.2003C28.4835 73.317 28.7324 73.534 28.8889 73.8141C29.0454 74.0942 29.0997 74.42 29.0424 74.7357C28.9852 75.0514 28.8201 75.3374 28.5753 75.5447C28.3305 75.7521 28.0212 75.8679 27.7004 75.8724H29.9562C30.277 75.8679 30.5863 75.7521 30.8311 75.5447C31.0759 75.3374 31.2411 75.0514 31.2983 74.7357C31.3555 74.42 31.3012 74.0942 31.1448 73.8141C30.9883 73.534 30.7393 73.317 30.4405 73.2003Z" fill="#F0F0F0"/>
<path d="M18.9038 9.89302C18.6429 9.89266 18.3901 9.80186 18.1886 9.63607C17.9871 9.47028 17.8493 9.23976 17.7986 8.98376C17.6639 8.30219 17.1203 4.76831 19.6641 2.11166C20.697 1.04806 22.0267 0.320603 23.4795 0.0242427C23.7715 -0.0360111 24.0756 0.0218562 24.3251 0.185187C24.5746 0.348518 24.7493 0.604019 24.8109 0.895802C24.8726 1.18759 24.8161 1.4919 24.654 1.74219C24.4918 1.99248 24.2372 2.16836 23.9457 2.23138C22.9371 2.43445 22.013 2.9363 21.2935 3.67167C19.4843 5.56132 19.9522 8.2461 20.0116 8.54613C20.0438 8.70973 20.0394 8.87845 19.9987 9.04015C19.9579 9.20185 19.8819 9.35251 19.7759 9.4813C19.67 9.61009 19.5369 9.71381 19.3861 9.785C19.2353 9.85619 19.0706 9.89308 18.9038 9.89302Z" fill="black"/>
<path d="M22.912 14.3675C22.8233 15.4015 22.3384 16.3613 21.5587 17.0463C20.7789 17.7313 19.7647 18.0884 18.7278 18.0432C17.691 17.998 16.7117 17.5538 15.9946 16.8036C15.2774 16.0533 14.878 15.0549 14.8796 14.0171C16.1292 13.3577 17.5318 13.0427 18.9433 13.1042C20.3548 13.1658 21.7246 13.6018 22.912 14.3675Z" fill="#F0F0F0"/>
<path d="M18.9052 16.9179C21.1292 16.9179 22.9322 15.0928 22.9322 12.8413C22.9322 10.5898 21.1292 8.76465 18.9052 8.76465C16.6811 8.76465 14.8782 10.5898 14.8782 12.8413C14.8782 15.0928 16.6811 16.9179 18.9052 16.9179Z" fill="#F0F0F0"/>
<path d="M18.9053 8.76465C18.5234 8.76472 18.1435 8.81972 17.7773 8.92797C18.6162 9.18335 19.3508 9.70154 19.8729 10.4061C20.3949 11.1107 20.6767 11.9644 20.6767 12.8413C20.6767 13.7182 20.3949 14.5719 19.8729 15.2765C19.3508 15.981 18.6162 16.4992 17.7773 16.7546C18.1435 16.8628 18.5234 16.9178 18.9053 16.9178C19.9769 16.9032 20.9996 16.4673 21.7522 15.7044C22.5049 14.9415 22.9268 13.9129 22.9268 12.8412C22.9268 11.7695 22.5049 10.7409 21.7522 9.97802C20.9996 9.2151 19.9769 8.7792 18.9053 8.76465Z" fill="#F0F0F0"/>
<path d="M66.235 75.8721H44.9637C44.4427 75.872 43.9378 75.6917 43.5347 75.3616C43.1316 75.0315 42.8552 74.5721 42.7524 74.0614L38.6052 53.4639H72.5935L68.4463 74.0614C68.3435 74.5721 68.0671 75.0316 67.6639 75.3616C67.2608 75.6917 66.7559 75.8721 66.2348 75.8721H66.235Z" fill="#F0F0F0"/>
<path d="M70.3377 53.4639L66.1905 74.0614C66.0877 74.5721 65.8112 75.0316 65.4081 75.3616C65.005 75.6917 64.5 75.8721 63.979 75.8721H66.2349C66.7559 75.8721 67.2608 75.6917 67.664 75.3616C68.0671 75.0316 68.3435 74.5721 68.4464 74.0614L72.5935 53.4639H70.3377Z" fill="#F0F0F0"/>
<path d="M69.1424 42.2607H68.7946C68.8048 42.0919 68.8101 41.9229 68.8105 41.7539C68.8107 40.2122 68.3986 38.6984 67.617 37.3695C66.8354 36.0406 65.7127 34.9449 64.3652 34.1958C63.0177 33.4467 61.4944 33.0715 59.9532 33.109C58.4119 33.1466 56.9087 33.5955 55.5993 34.4094C54.2899 33.5955 52.7867 33.1466 51.2455 33.109C49.7042 33.0715 48.1809 33.4467 46.8335 34.1958C45.486 34.9449 44.3633 36.0406 43.5817 37.3695C42.8001 38.6984 42.388 40.2122 42.3881 41.7539C42.3881 41.9241 42.3944 42.0929 42.404 42.2607H42.0562C41.1725 42.2607 40.2974 42.4348 39.4809 42.7729C38.6644 43.1111 37.9226 43.6068 37.2977 44.2317C36.6728 44.8566 36.1771 45.5985 35.8389 46.4149C35.5007 47.2314 35.3267 48.1065 35.3267 48.9902C35.3267 49.8739 35.5007 50.749 35.8389 51.5655C36.1771 52.382 36.6728 53.1238 37.2977 53.7487C37.9226 54.3736 38.6644 54.8693 39.4809 55.2075C40.2974 55.5457 41.1725 55.7197 42.0562 55.7197H69.1424C70.0262 55.7197 70.9013 55.5457 71.7177 55.2075C72.5342 54.8693 73.276 54.3736 73.9009 53.7487C74.5258 53.1238 75.0215 52.382 75.3597 51.5655C75.6979 50.749 75.872 49.8739 75.872 48.9902C75.872 48.1065 75.6979 47.2314 75.3597 46.4149C75.0215 45.5985 74.5258 44.8566 73.9009 44.2317C73.276 43.6068 72.5342 43.1111 71.7177 42.7729C70.9013 42.4348 70.0262 42.2607 69.1424 42.2607Z" fill="#F3A812"/>
<path d="M46.8856 34.1664C49.0981 33.6686 51.4177 34.0609 53.3435 35.2587C53.9972 34.8516 54.7026 34.534 55.4407 34.3142C54.1501 33.5494 52.6827 33.1337 51.1827 33.1077C49.6827 33.0818 48.2018 33.4467 46.8856 34.1664ZM38.5924 43.2202C38.991 43.1473 39.3952 43.1104 39.8004 43.11H40.1482C40.138 42.9412 40.1327 42.7722 40.1323 42.6032C40.1323 42.5823 40.1338 42.5618 40.1338 42.5409C39.5934 42.7015 39.0756 42.9298 38.5924 43.2202ZM69.1425 42.2607H68.7946C68.8048 42.092 68.8101 41.923 68.8106 41.7539C68.8109 40.2538 68.4209 38.7794 67.6789 37.4757C66.9369 36.1719 65.8684 35.0836 64.5785 34.3178C63.2886 33.5521 61.8216 33.1351 60.3217 33.1079C58.8219 33.0807 57.3407 33.4442 56.0239 34.1628C57.2884 33.881 58.6 33.8869 59.8619 34.18C61.1238 34.4731 62.3038 35.0458 63.3146 35.856C64.3255 36.6663 65.1415 37.6932 65.7023 38.861C66.2631 40.0288 66.5544 41.3077 66.5547 42.6032C66.5543 42.7722 66.549 42.9412 66.5388 43.11H66.8866C68.3582 43.1101 69.7892 43.5925 70.9604 44.4834C72.1317 45.3743 72.9786 46.6245 73.3716 48.0426C73.7646 49.4607 73.6819 50.9686 73.1363 52.3352C72.5906 53.7019 71.612 54.8521 70.3504 55.6095C72.0028 55.308 73.4826 54.3994 74.4992 53.0623C75.5157 51.7251 75.9954 50.0562 75.844 48.3834C75.6926 46.7106 74.9211 45.1548 73.6811 44.0219C72.441 42.889 70.8221 42.2608 69.1425 42.2607Z" fill="#F0F0F0"/>
<path d="M55.5995 36.1318C57.8236 36.1318 59.6265 34.3066 59.6265 32.0552C59.6265 29.8037 57.8236 27.9785 55.5995 27.9785C53.3755 27.9785 51.5725 29.8037 51.5725 32.0552C51.5725 34.3066 53.3755 36.1318 55.5995 36.1318Z" fill="#F0F0F0"/>
<path d="M55.5994 27.9785C55.2175 27.9786 54.8376 28.0336 54.4714 28.1418C55.3103 28.3972 56.0449 28.9154 56.567 29.62C57.089 30.3246 57.3708 31.1783 57.3708 32.0552C57.3708 32.9321 57.089 33.7857 56.567 34.4903C56.0449 35.1949 55.3103 35.7131 54.4714 35.9685C54.8376 36.0767 55.2175 36.1317 55.5994 36.1318C56.672 36.1188 57.6962 35.6835 58.4501 34.9204C59.204 34.1573 59.6268 33.1278 59.6268 32.0552C59.6268 30.9825 59.204 29.953 58.4501 29.1899C57.6962 28.4268 56.672 27.9915 55.5994 27.9785Z" fill="#F0F0F0"/>
<path d="M74.6995 43.434C73.419 42.1462 71.7294 41.3455 69.9219 41.1699C69.776 38.7855 68.7633 36.5368 67.0745 34.8473C65.3857 33.1578 63.1373 32.1442 60.753 31.9974C60.7427 30.8106 60.3267 29.6631 59.5741 28.7454C58.8215 27.8277 57.7777 27.1951 56.6159 26.9526C56.5688 25.9442 56.7122 24.2174 57.9878 22.8851C58.7072 22.1497 59.6314 21.6479 60.6399 21.4448C60.9314 21.3818 61.1861 21.2059 61.3482 20.9556C61.5104 20.7053 61.5668 20.401 61.5052 20.1092C61.4435 19.8175 61.2689 19.562 61.0193 19.3986C60.7698 19.2353 60.4658 19.1774 60.1737 19.2377C58.7209 19.534 57.3913 20.2615 56.3583 21.3251C54.5402 23.2239 54.2994 25.5703 54.3591 27.0038C53.2475 27.2882 52.261 27.932 51.5532 28.8351C50.8454 29.7382 50.456 30.85 50.4457 31.9974C48.0613 32.1443 45.813 33.158 44.1241 34.8475C42.4353 36.5371 41.4226 38.7859 41.2768 41.1703C39.6449 41.3331 38.1047 42.0023 36.8723 43.0843C35.6398 44.1662 34.7767 45.6067 34.4039 47.2038C34.0312 48.8009 34.1675 50.4746 34.7937 51.9904C35.4199 53.5061 36.5047 54.788 37.896 55.6563L41.6472 74.2843C41.8032 75.0494 42.2182 75.7374 42.8224 76.2322C43.4266 76.7269 44.1829 76.9982 44.9638 77.0002H66.235C67.016 76.9982 67.7723 76.7269 68.3765 76.2321C68.9807 75.7373 69.3957 75.0493 69.5516 74.2841L73.3026 55.6576C74.3057 55.0313 75.1545 54.1868 75.7859 53.1869C76.4173 52.187 76.8149 51.0575 76.9492 49.8826C77.0834 48.7077 76.9509 47.5177 76.5613 46.4011C76.1718 45.2846 75.5354 44.2705 74.6995 43.434ZM55.5973 29.1065H55.6003C56.3884 29.1069 57.144 29.4202 57.701 29.9777C58.2581 30.5352 58.5709 31.291 58.5707 32.0791C58.5705 32.8671 58.2573 33.6229 57.7 34.18C57.1427 34.7372 56.3869 35.0502 55.5988 35.0502C54.8108 35.0502 54.055 34.7372 53.4977 34.18C52.9403 33.6229 52.6271 32.8671 52.6269 32.0791C52.6267 31.291 52.9396 30.5352 53.4966 29.9777C54.0536 29.4202 54.8092 29.1069 55.5973 29.1065ZM67.3401 73.8387C67.2882 74.0937 67.15 74.3231 66.9487 74.4881C66.7474 74.653 66.4953 74.7435 66.235 74.7443H44.9638C44.7035 74.7436 44.4515 74.6531 44.2502 74.4882C44.0489 74.3233 43.9106 74.094 43.8587 73.839L40.4009 56.6678C40.945 56.786 41.5 56.8463 42.0567 56.8477H69.1421C69.6989 56.8463 70.2541 56.786 70.7982 56.6678L67.3401 73.8387ZM71.7676 53.9405C70.9598 54.3716 70.0577 54.5954 69.1421 54.592H42.0567C41.1414 54.5955 40.2395 54.3717 39.432 53.9408C38.9398 53.6788 38.4893 53.3453 38.095 52.9512C37.3117 52.1676 36.7783 51.1694 36.5623 50.0827C36.3463 48.9961 36.4573 47.8697 36.8813 46.8462C37.3054 45.8226 38.0234 44.9477 38.9446 44.3321C39.8658 43.7166 40.9488 43.388 42.0567 43.3879H42.4041C42.5574 43.3879 42.7091 43.3567 42.8499 43.2961C42.9907 43.2356 43.1176 43.147 43.223 43.0357C43.3285 42.9245 43.4101 42.7929 43.463 42.649C43.5158 42.5052 43.5388 42.3521 43.5306 42.199C43.5226 42.0562 43.5155 41.9035 43.5155 41.7533C43.518 39.7796 44.2955 37.8859 45.6806 36.48C47.0658 35.0741 48.9477 34.2684 50.9211 34.2366C51.3271 35.1373 51.9846 35.9017 52.8145 36.4379C53.6444 36.9741 54.6114 37.2593 55.5994 37.2593C56.5874 37.2593 57.5545 36.9741 58.3844 36.4379C59.2142 35.9017 59.8717 35.1373 60.2778 34.2366C62.2511 34.2684 64.133 35.0741 65.5181 36.48C66.9033 37.8858 67.6808 39.7795 67.6833 41.7531C67.6833 41.9035 67.6761 42.0562 67.6684 42.199C67.6601 42.3521 67.6831 42.5052 67.736 42.649C67.7889 42.7928 67.8705 42.9244 67.9759 43.0357C68.0813 43.1469 68.2082 43.2355 68.349 43.2961C68.4898 43.3566 68.6414 43.3879 68.7947 43.3879H69.1421C70.3926 43.3881 71.6071 43.8067 72.5922 44.5769C73.5773 45.3472 74.2765 46.4248 74.5784 47.6383C74.8803 48.8519 74.7676 50.1315 74.2582 51.2735C73.7488 52.4156 72.8722 53.3543 71.7676 53.9405ZM67.823 48.2271L65.2901 50.4195C65.1773 50.5162 65.0847 50.6342 65.0177 50.7668C64.9506 50.8994 64.9104 51.0439 64.8994 51.1921C64.8883 51.3403 64.9066 51.4891 64.9533 51.6302C65 51.7713 65.0741 51.9017 65.1713 52.0141C65.2685 52.1264 65.387 52.2184 65.5199 52.2849C65.6528 52.3513 65.7975 52.3908 65.9457 52.4011C66.0939 52.4115 66.2427 52.3924 66.3836 52.3451C66.5244 52.2977 66.6545 52.223 66.7664 52.1253L69.2994 49.9329C69.5235 49.7365 69.6608 49.4594 69.6813 49.1622C69.7018 48.8649 69.6039 48.5716 69.4089 48.3463C69.2138 48.121 68.9376 47.9821 68.6405 47.9598C68.3434 47.9375 68.0495 48.0335 67.823 48.2271ZM62.2611 44.659C62.139 44.3858 61.9135 44.1724 61.634 44.0656C61.3546 43.9588 61.0442 43.9674 60.771 44.0894C60.4979 44.2115 60.2845 44.4371 60.1777 44.7165C60.0709 44.996 60.0794 45.3064 60.2015 45.5795L61.5686 48.6378C61.6906 48.911 61.9162 49.1244 62.1957 49.2312C62.4751 49.338 62.7855 49.3294 63.0586 49.2074C63.3318 49.0853 63.5452 48.8597 63.652 48.5803C63.7588 48.3008 63.7502 47.9904 63.6282 47.7173L62.2611 44.659ZM30.8454 72.1469L22.0757 68.7758C22.0352 68.7589 22.0006 68.7302 21.9766 68.6935C21.9526 68.6567 21.9402 68.6136 21.9409 68.5697V59.3975C21.9409 58.7319 21.9018 58.064 21.8642 57.4181C21.7857 56.0704 21.7114 54.7977 21.9695 53.5986C22.3211 51.966 23.3542 51.2768 24.9179 50.2333L25.2389 50.0189C31.9385 45.5183 36.2923 38.7253 37.1841 31.3816C37.2033 31.2231 37.1887 31.0624 37.1412 30.9101C37.0938 30.7577 37.0145 30.6171 36.9087 30.4977C36.8028 30.3782 36.6729 30.2826 36.5273 30.2171C36.3818 30.1516 36.224 30.1177 36.0644 30.1177H35.1009C35.0331 28.0483 34.2735 26.0615 32.9435 24.4747C31.6135 22.8879 29.7899 21.7929 27.7642 21.3647C27.7648 21.3222 27.7662 21.2797 27.7662 21.2373C27.7739 19.7766 27.435 18.335 26.7772 17.0308C26.1194 15.7266 25.1616 14.5972 23.9823 13.7352C24.0336 13.4401 24.0596 13.1412 24.0599 12.8417C24.0626 11.6449 23.6524 10.4838 22.8985 9.55431C22.1446 8.6248 21.0932 7.98373 19.9216 7.73926C19.8746 6.73104 20.0179 5.00426 21.2935 3.67179C22.013 2.93643 22.9371 2.43457 23.9456 2.2315C24.2383 2.16966 24.4945 1.99408 24.6577 1.74339C24.8209 1.4927 24.8779 1.18744 24.816 0.894756C24.7542 0.602072 24.5786 0.345943 24.3279 0.182714C24.0772 0.0194851 23.772 -0.0374728 23.4793 0.0243706C22.0265 0.320731 20.6969 1.04819 19.6639 2.11179C17.846 4.01062 17.6052 6.35717 17.6649 7.79054C16.5435 8.07722 15.5498 8.72956 14.8408 9.64439C14.1318 10.5592 13.748 11.6843 13.7502 12.8417C13.7502 13.0136 13.7591 13.1837 13.7752 13.3515C12.5738 14.0994 11.5609 15.114 10.815 16.3166C10.0691 17.5192 9.6102 18.8775 9.47401 20.2861C7.38252 20.7169 5.50424 21.8574 4.15732 23.5144C2.8104 25.1715 2.07766 27.2431 2.08321 29.3785C2.08321 29.6256 2.09645 29.872 2.1157 30.1178H1.22809C1.0723 30.1064 0.915815 30.127 0.76828 30.1783C0.620745 30.2297 0.485282 30.3107 0.370232 30.4163C0.255182 30.522 0.162982 30.6501 0.0993092 30.7928C0.0356366 30.9354 0.0018397 31.0896 5.21372e-10 31.2458C-1.38555e-06 31.2912 0.00276087 31.3366 0.00827148 31.3817C0.488676 35.2318 1.84514 38.9206 3.97347 42.1647C6.1029 45.3983 8.91125 48.129 12.2031 50.167C12.3728 50.2717 12.5498 50.3776 12.7307 50.4855C14.2066 51.3676 15.2514 52.0752 15.2514 53.1526V68.5697C15.2523 68.6136 15.2399 68.6568 15.2158 68.6935C15.1918 68.7303 15.1572 68.7589 15.1167 68.7758L6.34694 72.1469C5.80211 72.3582 5.348 72.7528 5.06281 73.2628C4.77762 73.7729 4.6792 74.3664 4.7845 74.9412C4.8898 75.5159 5.19223 76.036 5.63971 76.4118C6.08719 76.7876 6.65171 76.9956 7.23604 77H29.9563C30.5406 76.9956 31.1051 76.7876 31.5526 76.4117C32 76.0359 32.3024 75.5159 32.4077 74.9411C32.513 74.3663 32.4146 73.7728 32.1294 73.2628C31.8442 72.7528 31.3902 72.3582 30.8454 72.1469ZM32.845 30.1177H19.0331C19.2044 26.4038 22.2362 23.4357 25.9391 23.4357C29.642 23.4357 32.6739 26.4039 32.845 30.1177ZM18.905 9.89315C19.4904 9.88318 20.0654 10.0477 20.557 10.3656C21.0486 10.6836 21.4344 11.1406 21.6653 11.6786C21.8962 12.2166 21.9618 12.8111 21.8537 13.3865C21.7456 13.9618 21.4687 14.492 21.0582 14.9095C20.6478 15.3269 20.1224 15.6128 19.5489 15.7307C18.9755 15.8485 18.3799 15.793 17.8381 15.5713C17.2963 15.3495 16.8328 14.9715 16.5065 14.4854C16.1802 13.9993 16.006 13.4271 16.0061 12.8417C16.0004 12.0666 16.3024 11.3208 16.8459 10.768C17.3893 10.2152 18.1299 9.9007 18.905 9.89315ZM14.5181 15.5707C14.9569 16.2978 15.5697 16.9045 16.3012 17.3359C17.0327 17.7674 17.8601 18.0102 18.7087 18.0425C19.5574 18.0748 20.4008 17.8955 21.163 17.5208C21.9252 17.1462 22.5822 16.5879 23.075 15.8961C23.8375 16.5518 24.4496 17.3642 24.8696 18.2779C25.2896 19.1916 25.5077 20.1852 25.509 21.1908C24.26 21.2516 23.0369 21.5687 21.9158 22.1224C20.7946 22.6761 19.7993 23.4544 18.9918 24.4092C18.2134 23.1738 17.1526 22.1412 15.8967 21.3965C14.6408 20.6517 13.2258 20.2162 11.7685 20.1259C12.0465 18.3036 13.0352 16.6658 14.5181 15.5707ZM11.2531 22.3652C12.6088 22.3744 13.9322 22.7799 15.0602 23.5319C16.1883 24.2839 17.0717 25.3495 17.6016 26.5973C17.0988 27.7054 16.8188 28.9016 16.7774 30.1177H4.37877C4.35288 29.8721 4.33963 29.6254 4.33907 29.3785C4.33907 25.5114 7.44058 22.3652 11.2531 22.3652ZM29.9563 74.7442H7.23604C7.17118 74.7418 7.1099 74.7138 7.06562 74.6663C7.02134 74.6188 6.99767 74.5558 6.99978 74.4909C6.99898 74.4401 7.0135 74.3901 7.04145 74.3477C7.0694 74.3052 7.10948 74.2721 7.15649 74.2527L15.9262 70.8812C16.3913 70.6992 16.7909 70.3813 17.0729 69.9691C17.3549 69.5568 17.5062 69.0692 17.5073 68.5697V53.1526C17.5073 50.7119 15.4153 49.462 13.8878 48.5491C13.717 48.4472 13.5499 48.3471 13.3897 48.2483C10.3781 46.3842 7.80884 43.8864 5.86057 40.9285C4.1599 38.3341 2.99629 35.4253 2.43843 32.3737H3.41898L3.42259 32.374L3.42815 32.3737L33.9385 32.3735L33.9445 32.3738L33.9505 32.3735H34.7524C33.6177 38.5796 29.7467 44.2731 23.981 48.1464L23.6659 48.3569C22.0152 49.4582 20.3083 50.597 19.7643 53.1237C19.4416 54.6228 19.5282 56.1105 19.6123 57.5494C19.6497 58.1913 19.6849 58.7976 19.6849 59.3975V68.5699C19.686 69.0694 19.8374 69.557 20.1194 69.9692C20.4014 70.3815 20.801 70.6993 21.2661 70.8814L30.0357 74.2525C30.0828 74.2719 30.1229 74.3051 30.1508 74.3476C30.1788 74.3901 30.1933 74.44 30.1926 74.4909C30.1947 74.5558 30.171 74.6188 30.1267 74.6663C30.0825 74.7138 30.0212 74.7418 29.9563 74.7442ZM64.9008 60.6646C64.7572 60.6281 64.6079 60.6202 64.4613 60.6414C64.3147 60.6626 64.1737 60.7125 64.0463 60.7882C63.919 60.864 63.8079 60.964 63.7193 61.0827C63.6306 61.2014 63.5663 61.3364 63.5298 61.48L61.274 70.3531C61.2358 70.4972 61.2266 70.6474 61.2468 70.7951C61.2671 70.9428 61.3164 71.085 61.3919 71.2135C61.4675 71.342 61.5678 71.4543 61.687 71.5438C61.8062 71.6333 61.9419 71.6983 62.0864 71.735C62.2309 71.7717 62.3812 71.7795 62.5287 71.7577C62.6762 71.736 62.8179 71.6853 62.9456 71.6084C63.0734 71.5316 63.1846 71.4302 63.273 71.3101C63.3613 71.19 63.4249 71.0536 63.4602 70.9087L65.716 62.0357C65.7897 61.7458 65.7452 61.4385 65.5924 61.1814C65.4395 60.9243 65.1907 60.7383 64.9008 60.6646ZM54.7629 49.7876L52.2168 47.6105C51.9891 47.4191 51.695 47.3255 51.3985 47.3499C51.102 47.3743 50.8272 47.5149 50.6339 47.741C50.4406 47.9671 50.3444 48.2604 50.3663 48.5571C50.3882 48.8537 50.5264 49.1297 50.7508 49.325L53.2969 51.502C53.5247 51.6934 53.8188 51.7871 54.1153 51.7626C54.4117 51.7382 54.6865 51.5976 54.8799 51.3716C55.0732 51.1455 55.1694 50.8522 55.1475 50.5555C55.1256 50.2588 54.9874 49.9828 54.7629 49.7876ZM45.0277 46.7312C44.9075 46.6446 44.7714 46.5826 44.6272 46.5486C44.483 46.5146 44.3335 46.5094 44.1873 46.5332C44.0411 46.557 43.901 46.6094 43.775 46.6874C43.649 46.7654 43.5397 46.8674 43.4531 46.9876L41.4959 49.7064C41.4074 49.8265 41.3436 49.9629 41.3082 50.1078C41.2728 50.2528 41.2665 50.4033 41.2897 50.5506C41.3129 50.698 41.365 50.8393 41.4432 50.9664C41.5213 51.0934 41.6239 51.2038 41.745 51.2909C41.866 51.3781 42.0032 51.4403 42.1485 51.4741C42.2938 51.5079 42.4444 51.5125 42.5915 51.4877C42.7386 51.4629 42.8793 51.4092 43.0055 51.3296C43.1317 51.2501 43.2408 51.1463 43.3266 51.0242L45.284 48.3056C45.3705 48.1854 45.4326 48.0494 45.4665 47.9052C45.5005 47.761 45.5057 47.6115 45.4819 47.4653C45.4581 47.3191 45.4058 47.1791 45.3278 47.0531C45.2499 46.9271 45.1479 46.8177 45.0277 46.7312ZM62.2835 38.9377C62.1884 38.654 61.9845 38.4198 61.7166 38.2866C61.4488 38.1533 61.139 38.1319 60.8554 38.2271L57.6795 39.2929C57.539 39.34 57.4093 39.4143 57.2976 39.5116C57.1859 39.6089 57.0944 39.7272 57.0284 39.8599C56.9625 39.9925 56.9233 40.1368 56.9131 40.2846C56.9029 40.4324 56.9219 40.5807 56.969 40.7211C57.0162 40.8616 57.0905 40.9913 57.1878 41.103C57.2851 41.2147 57.4034 41.3062 57.536 41.3722C57.6686 41.4381 57.813 41.4773 57.9607 41.4875C58.1085 41.4977 58.2568 41.4787 58.3973 41.4316L61.5732 40.3658C61.8568 40.2706 62.091 40.0667 62.2242 39.7988C62.3574 39.531 62.3787 39.2212 62.2835 38.9377ZM51.2849 42.5049C51.5546 42.5048 51.8154 42.408 52.0199 42.2321C52.2244 42.0562 52.3591 41.8128 52.3996 41.5461C52.4401 41.2794 52.3837 41.0071 52.2406 40.7784C52.0975 40.5497 51.8772 40.3799 51.6196 40.2997L48.4208 39.3046C48.2789 39.2588 48.1293 39.2416 47.9807 39.254C47.8321 39.2664 47.6875 39.3082 47.5551 39.3768C47.4228 39.4455 47.3053 39.5397 47.2096 39.6541C47.1139 39.7684 47.0418 39.9006 46.9975 40.043C46.9532 40.1853 46.9376 40.3351 46.9515 40.4836C46.9655 40.632 47.0087 40.7762 47.0788 40.9079C47.1488 41.0395 47.2443 41.1559 47.3596 41.2505C47.4749 41.345 47.6078 41.4157 47.7507 41.4585L50.9495 42.4536C51.058 42.4875 51.1711 42.5049 51.2849 42.5049ZM55.5996 60.63C55.3004 60.63 55.0135 60.7488 54.802 60.9604C54.5905 61.1719 54.4716 61.4588 54.4716 61.7579V70.631C54.4716 70.9301 54.5905 71.217 54.802 71.4285C55.0135 71.6401 55.3004 71.7589 55.5996 71.7589C55.8987 71.7589 56.1856 71.6401 56.3971 71.4285C56.6087 71.217 56.7275 70.9301 56.7275 70.631V61.7579C56.7275 61.4588 56.6087 61.1719 56.3971 60.9604C56.1856 60.7488 55.8987 60.63 55.5996 60.63ZM47.6692 61.48C47.6339 61.3352 47.5703 61.1987 47.4819 61.0787C47.3936 60.9586 47.2824 60.8572 47.1546 60.7803C47.0269 60.7035 46.8852 60.6527 46.7377 60.631C46.5902 60.6093 46.4399 60.617 46.2954 60.6537C46.1509 60.6904 46.0152 60.7555 45.896 60.845C45.7768 60.9345 45.6765 61.0467 45.6009 61.1752C45.5254 61.3038 45.476 61.446 45.4558 61.5937C45.4355 61.7414 45.4448 61.8916 45.4829 62.0357L47.7388 70.9087C47.7741 71.0536 47.8377 71.19 47.926 71.3101C48.0143 71.4302 48.1256 71.5316 48.2533 71.6084C48.3811 71.6853 48.5228 71.736 48.6703 71.7577C48.8178 71.7795 48.9681 71.7717 49.1126 71.735C49.257 71.6983 49.3928 71.6333 49.512 71.5438C49.6312 71.4543 49.7315 71.342 49.807 71.2135C49.8826 71.085 49.9319 70.9428 49.9522 70.7951C49.9724 70.6474 49.9632 70.4972 49.925 70.3531L47.6692 61.48Z" fill="black"/>
</g>
<defs>
<clipPath id="clip0_160_4281">
<rect width="77" height="77" fill="white"/>
</clipPath>
</defs>
</svg>
