<svg width="77" height="77" viewBox="0 0 77 77" fill="none" xmlns="http://www.w3.org/2000/svg">
<g clip-path="url(#clip0_160_4203)">
<path d="M27.001 34.2532C26.8551 32.2071 28.1141 31.1532 27.3138 29.1631C26.4003 26.8922 24.0298 26.6875 23.9423 25.0108C23.8629 23.4866 25.8014 23.2696 26.5155 21.2913C27.6448 18.1623 23.9041 15.6309 25.0211 13.7989C25.9612 12.2574 30.0402 12.0991 32.3191 13.7796C34.3845 15.3029 33.8114 17.4777 36.1728 18.8034C37.9246 19.787 38.9114 18.9669 39.9664 19.9653C41.5306 21.4455 39.6923 23.5613 40.9772 26.2098C42.21 28.7508 44.5714 28.1815 46.0661 30.8879C47.5422 33.5606 46.4466 36.5322 46.277 36.9762C44.9647 40.4093 41.3442 42.2854 38.2033 42.5356C32.466 42.9928 27.2759 38.1089 27.001 34.2532Z" fill="#F0F0F0"/>
<path d="M46.0659 30.8881C44.571 28.1815 42.2099 28.7511 40.977 26.2101C39.6921 23.5617 41.5304 21.4457 39.9664 19.9654C38.9112 18.9671 37.9244 19.787 36.1726 18.8036C33.8112 17.4781 34.3845 15.303 32.3189 13.7798C30.5755 12.4943 27.7802 12.2858 26.1411 12.9485C26.7374 13.1345 27.2999 13.4152 27.8071 13.7798C29.8726 15.3031 29.2995 17.4779 31.6609 18.8036C33.4126 19.7872 34.3995 18.9671 35.4545 19.9654C37.0187 21.4457 35.1803 23.5617 36.4653 26.2101C37.698 28.7511 40.0595 28.1817 41.5542 30.8881C43.0303 33.5609 41.9347 36.5324 41.765 36.9764C40.6579 39.8727 37.908 41.6609 35.1891 42.2994C36.1755 42.5332 37.1921 42.613 38.2029 42.5359C41.3439 42.2856 44.9645 40.4093 46.2768 36.9764C46.4464 36.5324 47.542 33.561 46.0659 30.8881Z" fill="#F0F0F0"/>
<path d="M9.01119 33.6577C8.83373 30.86 10.4946 29.4095 9.45725 26.6927C8.27367 23.5928 5.16209 23.3292 5.05892 21.0362C4.96508 18.9518 7.51224 18.6417 8.46377 15.9306C9.96857 11.6424 5.07396 8.20577 6.5535 5.692C7.79874 3.5769 13.1564 3.33192 16.1371 5.61484C18.8391 7.68422 18.0712 10.6633 21.1631 12.4602C23.4565 13.7932 24.7581 12.6647 26.1366 14.023C28.1804 16.0369 25.7516 18.9441 27.4205 22.558C29.0217 26.0253 32.1267 25.2298 34.0706 28.9218C35.9904 32.5676 34.5311 36.6401 34.3052 37.2486C32.558 41.9537 27.7905 44.5453 23.6642 44.9095C16.1271 45.5745 9.34551 38.93 9.01119 33.6577Z" fill="#F3A812"/>
<path d="M34.0706 28.9211C32.1267 25.2292 29.0217 26.0246 27.4205 22.5573C25.7516 18.9434 28.1804 16.0364 26.1366 14.0224C24.7581 12.664 23.4566 13.7926 21.163 12.4595C18.071 10.6626 18.8391 7.68354 16.1371 5.61417C13.7349 3.77444 9.79065 3.57743 7.69751 4.67678C8.29439 4.9128 8.85679 5.22809 9.36955 5.61417C12.0715 7.68354 11.3036 10.6626 14.3955 12.4595C16.6889 13.7926 17.9905 12.664 19.369 14.0224C21.4128 16.0362 18.984 18.9434 20.6529 22.5573C22.2541 26.0246 25.3591 25.2292 27.303 28.9211C29.2228 32.567 27.7635 36.6395 27.5376 37.2479C26.1115 41.0885 22.6731 43.5201 19.2135 44.4823C20.6593 44.8912 22.1671 45.0356 23.6642 44.9087C27.7905 44.5446 32.558 41.953 34.3051 37.2478C34.5311 36.6395 35.9905 32.567 34.0706 28.9211Z" fill="#F3A812"/>
<path d="M69.9653 38.6758C69.7103 35.884 67.8459 34.7063 68.4532 31.8622C69.1459 28.6171 72.1799 27.8781 71.9291 25.5965C71.7011 23.5226 69.1366 23.6078 67.7795 21.0753C65.6329 17.0697 69.9407 12.921 68.092 10.6648C66.5363 8.76631 61.2047 9.34832 58.6106 12.0627C56.2591 14.523 57.4762 17.3485 54.6974 19.5995C52.6362 21.2695 51.1765 20.3547 50.0233 21.9088C48.3137 24.2132 51.1609 26.7123 50.0677 30.5397C49.0188 34.2121 45.8286 33.9037 44.4755 37.8507C43.1393 41.7485 45.2078 45.5479 45.5247 46.1145C47.9745 50.4949 53.0841 52.3223 57.2172 52.0474C64.7672 51.5452 70.4459 43.9368 69.9653 38.6758Z" fill="#F3A812"/>
<path d="M68.4532 31.8625C69.1459 28.6174 72.1799 27.8783 71.929 25.5968C71.701 23.5229 69.1366 23.608 67.7795 21.0756C65.6329 17.0699 69.9407 12.9212 68.092 10.6651C66.9377 9.25651 63.7057 9.21471 61.0544 10.3948C61.1522 10.4768 61.2425 10.5672 61.3244 10.6651C63.1731 12.9212 58.8655 17.0699 61.0119 21.0756C62.369 23.6081 64.9335 23.5227 65.1615 25.5968C65.4122 27.8782 62.3783 28.6174 61.6856 31.8625C61.0784 34.7065 62.9427 35.8842 63.1977 38.6761C63.6237 43.3404 59.2078 49.8494 52.9392 51.6157C54.3326 51.9892 55.7773 52.135 57.2172 52.0476C64.7671 51.5456 70.4459 43.937 69.9652 38.6761C69.7103 35.8842 67.8459 34.7065 68.4532 31.8625Z" fill="#F3A812"/>
<path d="M47.3687 44.9551C51.0624 44.9551 54.0567 41.9608 54.0567 38.2671C54.0567 34.5734 51.0624 31.5791 47.3687 31.5791C43.675 31.5791 40.6807 34.5734 40.6807 38.2671C40.6807 41.9608 43.675 44.9551 47.3687 44.9551Z" fill="#F3A812"/>
<path d="M47.3687 31.5791C46.5998 31.5785 45.8366 31.7108 45.1128 31.9701C46.4103 32.4352 47.5325 33.2898 48.3259 34.4169C49.1193 35.5441 49.5451 36.8888 49.5451 38.2672C49.5451 39.6456 49.1193 40.9903 48.3259 42.1175C47.5325 43.2446 46.4103 44.0992 45.1128 44.5643C46.0309 44.8931 47.0098 45.0173 47.9809 44.9279C48.952 44.8386 49.8919 44.538 50.7346 44.0472C51.5773 43.5563 52.3024 42.8872 52.8593 42.0865C53.4161 41.2859 53.7911 40.3732 53.958 39.4124C54.125 38.4516 54.0797 37.4659 53.8256 36.5243C53.5714 35.5828 53.1144 34.7083 52.4866 33.962C51.8588 33.2157 51.0755 32.6157 50.1914 32.2041C49.3073 31.7925 48.3439 31.5792 47.3687 31.5791Z" fill="#F0F0F0"/>
<path d="M36.0894 44.9551C39.7831 44.9551 42.7774 41.9608 42.7774 38.2671C42.7774 34.5734 39.7831 31.5791 36.0894 31.5791C32.3957 31.5791 29.4014 34.5734 29.4014 38.2671C29.4014 41.9608 32.3957 44.9551 36.0894 44.9551Z" fill="#F3A812"/>
<path d="M36.0894 31.5791C35.3205 31.5785 34.5573 31.7108 33.8335 31.9701C35.131 32.4352 36.2532 33.2898 37.0466 34.4169C37.84 35.5441 38.2658 36.8888 38.2658 38.2672C38.2658 39.6456 37.84 40.9903 37.0466 42.1175C36.2532 43.2446 35.131 44.0992 33.8335 44.5643C34.7516 44.8931 35.7305 45.0173 36.7016 44.9279C37.6727 44.8386 38.6126 44.538 39.4553 44.0472C40.298 43.5563 41.0231 42.8872 41.58 42.0865C42.1368 41.2859 42.5118 40.3732 42.6787 39.4124C42.8457 38.4516 42.8005 37.4659 42.5463 36.5243C42.2921 35.5828 41.8351 34.7083 41.2073 33.962C40.5796 33.2157 39.7962 32.6157 38.9121 32.2041C38.028 31.7925 37.0646 31.5792 36.0894 31.5791Z" fill="#F0F0F0"/>
<path d="M20.8372 62.8877H56.163V69.1721C56.163 70.0519 55.9897 70.9231 55.653 71.7359C55.3163 72.5488 54.8228 73.2873 54.2007 73.9095C53.5786 74.5316 52.84 75.0251 52.0271 75.3617C51.2143 75.6984 50.3431 75.8717 49.4633 75.8717H27.5369C26.6571 75.8717 25.7859 75.6984 24.973 75.3617C24.1602 75.0251 23.4216 74.5316 22.7995 73.9095C22.1773 73.2873 21.6838 72.5488 21.3471 71.7359C21.0105 70.9231 20.8372 70.0519 20.8372 69.1721V62.8877Z" fill="#F0F0F0"/>
<path d="M49.3954 62.8877V69.1721C49.3954 70.9489 48.6896 72.653 47.4331 73.9094C46.1767 75.1658 44.4726 75.8717 42.6958 75.8717H49.4634C50.3432 75.8717 51.2144 75.6984 52.0272 75.3617C52.84 75.025 53.5786 74.5315 54.2007 73.9094C54.8228 73.2873 55.3163 72.5487 55.653 71.7359C55.9897 70.9231 56.163 70.0519 56.163 69.1721V62.8877H49.3954Z" fill="#F0F0F0"/>
<path d="M59.7427 38.9014H75.8721C75.8722 42.4848 75.1666 46.0331 73.7953 49.3438C72.4241 52.6545 70.4142 55.6626 67.8803 58.1965C65.3465 60.7304 62.3383 62.7403 59.0276 64.1115C55.717 65.4827 52.1686 66.1884 48.5852 66.1882H28.4148C21.1779 66.1882 14.2374 63.3133 9.12016 58.196C4.00289 53.0787 1.12801 46.1383 1.12793 38.9014H59.7427Z" fill="#F0F0F0"/>
<path d="M69.1045 38.9014C69.1045 46.1385 66.2296 53.0792 61.1122 58.1966C55.9947 63.3141 49.054 66.189 41.8169 66.189H48.5845C55.8216 66.189 62.7623 63.3141 67.8797 58.1966C72.9972 53.0792 75.8721 46.1385 75.8721 38.9014H69.1045Z" fill="#F0F0F0"/>
<path d="M75.8721 37.7737H70.9701C70.7842 36.9247 70.5013 36.1 70.127 35.3157C69.6352 34.1989 69.28 33.392 69.5563 32.0988C69.8361 30.7889 70.6102 29.9556 71.3588 29.1497C72.2371 28.2043 73.2327 27.1328 73.05 25.4737C72.8742 23.8679 71.7703 23.1408 70.7965 22.4992C70.0217 21.9887 69.2899 21.5067 68.7738 20.5431C67.8496 18.8178 68.4459 16.9634 69.0227 15.1699C69.6074 13.3523 70.2118 11.4727 68.9648 9.95079C68.2146 9.03536 66.8889 8.49651 65.2321 8.43335C62.9681 8.34717 59.791 9.19478 57.7947 11.2836C56.4885 12.6506 56.1144 14.1052 55.7841 15.3885C55.4427 16.7154 55.1731 17.7631 53.9869 18.7241C53.1796 19.3783 52.5152 19.529 51.8118 19.6887C50.9408 19.8865 49.9533 20.1106 49.1171 21.2367C47.919 22.8511 48.3604 24.5464 48.75 26.042C49.0852 27.3293 49.4319 28.6603 48.9834 30.2298C48.947 30.3573 48.9063 30.4781 48.8631 30.5961C48.3707 30.5 47.8702 30.4514 47.3685 30.4511C47.2816 30.4511 47.1956 30.4564 47.1091 30.4593C47.0928 30.4191 47.0742 30.3799 47.0535 30.3418C46.1465 28.7003 44.9343 28.0318 43.9602 27.4946C43.0835 27.0111 42.45 26.6617 41.9919 25.7179C41.5048 24.7136 41.5953 23.8036 41.6911 22.8402C41.8042 21.7017 41.9451 20.285 40.7414 19.1449C39.912 18.3605 39.062 18.3 38.3789 18.2513C37.8345 18.2126 37.3644 18.1791 36.7243 17.8198C35.7937 17.2971 35.4972 16.6412 35.0866 15.7333C34.6682 14.8087 34.1942 13.7606 32.9882 12.8709C30.7919 11.252 27.0703 11.0076 25.0766 12.2244C24.7301 12.1607 24.3797 12.1202 24.0278 12.1033C23.3081 12.0537 22.6284 12.0068 21.7298 11.4846C20.4109 10.7181 19.9833 9.7243 19.442 8.46628C18.9182 7.24872 18.3246 5.86859 16.8227 4.71855C14.5289 2.96184 11.2591 2.61308 9.03547 3.04666C7.40854 3.36398 6.18196 4.10044 5.58205 5.11994C4.58346 6.8156 5.46986 8.57998 6.32708 10.2863C7.17273 11.9698 8.04725 13.7106 7.39967 15.5571C7.03768 16.5878 6.38874 17.1769 5.70176 17.8006C4.83807 18.5849 3.85902 19.4735 3.93226 21.0868C4.00671 22.7544 5.15494 23.6595 6.16797 24.4581C7.03181 25.139 7.92483 25.8432 8.40278 27.0955C8.875 28.3306 8.64791 29.1829 8.33405 30.3627C8.0835 31.3039 7.79956 32.3707 7.88573 33.7289C8.00214 35.1487 8.41956 36.5275 9.11021 37.7735H1.12793C0.828784 37.7735 0.541891 37.8923 0.330363 38.1039C0.118835 38.3154 0 38.6023 0 38.9014C0 51.5336 8.28652 62.2651 19.7087 65.9502V69.1722C19.7111 71.2475 20.5366 73.2372 22.004 74.7047C23.4715 76.1722 25.4612 76.9977 27.5365 77H49.4635C51.5388 76.9977 53.5285 76.1722 54.996 74.7047C56.4634 73.2372 57.2889 71.2475 57.2913 69.1722V65.9623C63.015 64.1139 68.0056 60.4992 71.5467 55.6372C75.0877 50.7753 76.9968 44.9163 77 38.9016C77 38.6024 76.8812 38.3155 76.6696 38.104C76.4581 37.8925 76.1712 37.7737 75.8721 37.7737ZM50.9283 22.5812C51.2503 22.1478 51.5351 22.0648 52.3111 21.8885C53.1046 21.7085 54.1913 21.4618 55.4069 20.4768C57.1719 19.047 57.5951 17.402 57.9687 15.9506C58.2679 14.7877 58.5263 13.7832 59.4255 12.842C60.7137 11.4941 63.065 10.6078 65.1462 10.6874C66.1192 10.7246 66.8945 10.9837 67.2198 11.3806C67.6564 11.9135 67.3807 12.9067 66.8751 14.4794C66.2218 16.5107 65.4088 19.0387 66.785 21.6083C67.5711 23.0758 68.6714 23.8006 69.5554 24.383C70.4381 24.9646 70.752 25.2132 70.8075 25.72C70.8708 26.2963 70.5383 26.7186 69.7059 27.6143C68.8389 28.5476 67.7598 29.7093 67.35 31.6276C66.9214 33.6339 67.5275 35.0102 68.0623 36.2248C68.2973 36.7259 68.4954 37.2435 68.6548 37.7735H60.1054C60.2513 37.3116 60.3941 36.849 60.5339 36.3856L64.2941 34.2723C64.4232 34.1997 64.5368 34.1024 64.6283 33.9859C64.7198 33.8694 64.7875 33.7361 64.8275 33.5935C64.8675 33.4508 64.879 33.3017 64.8613 33.1547C64.8437 33.0076 64.7972 32.8654 64.7247 32.7363C64.6521 32.6072 64.5548 32.4936 64.4383 32.4021C64.3218 32.3106 64.1885 32.2429 64.0459 32.2029C63.9032 32.163 63.7541 32.1515 63.6071 32.1691C63.46 32.1867 63.3179 32.2332 63.1887 32.3058L61.4022 33.3098C62.1479 30.4947 62.7768 27.6283 63.2707 24.7634C63.2983 24.6164 63.2964 24.4654 63.2651 24.3192C63.2338 24.173 63.1738 24.0345 63.0885 23.9117C63.0032 23.7889 62.8943 23.6843 62.7682 23.6039C62.6421 23.5236 62.5013 23.4691 62.3539 23.4437C62.2066 23.4183 62.0556 23.4224 61.9099 23.4558C61.7642 23.4893 61.6265 23.5514 61.505 23.6385C61.3835 23.7256 61.2805 23.836 61.202 23.9633C61.1235 24.0905 61.0712 24.2322 61.0479 24.3799C60.7105 26.3314 60.3133 28.272 59.8567 30.1991L58.7481 27.506C58.6918 27.3691 58.6089 27.2445 58.5044 27.1396C58.3999 27.0346 58.2758 26.9512 58.139 26.8943C58.0023 26.8373 57.8557 26.8078 57.7076 26.8075C57.5595 26.8071 57.4127 26.836 57.2757 26.8924C57.1388 26.9488 57.0142 27.0316 56.9093 27.1361C56.8043 27.2406 56.7209 27.3647 56.664 27.5015C56.607 27.6382 56.5775 27.7848 56.5772 27.9329C56.5768 28.0811 56.6057 28.2278 56.6621 28.3648L58.9188 33.8473C58.8724 34.0145 58.8272 34.1825 58.78 34.3491C58.6889 34.6703 58.5957 34.991 58.5004 35.3112C58.4988 35.317 58.497 35.3227 58.4955 35.3286C58.2539 36.1462 58.0009 36.9612 57.7366 37.7735H55.1679C55.0817 36.4336 54.6521 35.1384 53.9206 34.0125C53.189 32.8865 52.1801 31.9678 50.9908 31.3445C51.0486 31.184 51.1036 31.0205 51.1524 30.8497C51.77 28.6877 51.3058 26.9054 50.9328 25.4734C50.5657 24.0637 50.3988 23.2948 50.9283 22.5812ZM47.3685 32.707C48.757 32.7089 50.0947 33.2296 51.1191 34.167C52.1434 35.1044 52.7804 36.3908 52.9052 37.7737H43.8885C43.823 36.7189 43.5435 35.6884 43.0671 34.7451C43.5873 34.1068 44.2434 33.5927 44.9875 33.2401C45.7316 32.8876 46.5451 32.7054 47.3685 32.707ZM31.6491 14.6864C32.3811 15.2263 32.6679 15.8604 33.0309 16.663C33.4821 17.6601 34.0433 18.9013 35.6197 19.7868C36.4156 20.2314 37.3073 20.4766 38.2186 20.5016C38.7844 20.5417 38.9579 20.5633 39.1906 20.7833C39.558 21.1313 39.5532 21.5394 39.4461 22.6171C39.3351 23.7342 39.1969 25.1246 39.9621 26.7027C40.7333 28.2912 41.8689 28.9175 42.8707 29.4698C43.5793 29.8607 44.2088 30.2083 44.7385 30.907C43.597 31.3128 42.5662 31.98 41.7287 32.8554C41.0006 32.0935 40.1252 31.4876 39.1558 31.0743C38.1863 30.661 37.143 30.449 36.0891 30.4511C36.0103 30.4511 35.9324 30.4547 35.854 30.4572C35.6743 29.7415 35.4107 29.0497 35.0687 28.3959C33.9406 26.2539 32.4666 25.4125 31.1662 24.67C30.0073 24.0083 29.0919 23.4856 28.4446 22.0842C27.7599 20.6018 27.8972 19.2333 28.0303 17.9099C28.1653 16.5669 28.3158 15.0674 27.3971 13.7692C28.6721 13.5772 30.4594 13.8094 31.6491 14.6864ZM41.6247 37.7735H30.5522C30.6741 36.3893 31.3101 35.1009 32.3349 34.1625C33.3597 33.224 34.6988 32.7034 36.0884 32.7034C37.478 32.7034 38.8172 33.224 39.8419 34.1625C40.8667 35.1009 41.5028 36.3893 41.6247 37.7735ZM7.56465 22.6865C6.60516 21.9302 6.21188 21.5646 6.18602 20.9854C6.16286 20.4762 6.43491 20.182 7.2183 19.471C8.00183 18.7596 8.97697 17.8743 9.52845 16.304C10.4929 13.5534 9.30091 11.1804 8.34307 9.27373C7.60149 7.7975 7.17649 6.85846 7.5263 6.26442C7.78647 5.82227 8.51211 5.44719 9.46754 5.26071C11.5103 4.86247 13.971 5.37576 15.4513 6.50955C16.4855 7.30151 16.8953 8.25438 17.37 9.35765C17.9621 10.734 18.6331 12.2939 20.5966 13.4352C21.9494 14.2211 23.0609 14.2978 23.8726 14.3538C24.6663 14.4085 24.9603 14.4469 25.3449 14.826C25.9782 15.4498 25.9317 16.2352 25.786 17.6845C25.638 19.1566 25.4539 20.9889 26.3969 23.03C27.3467 25.0869 28.7819 25.9062 30.048 26.629C31.2303 27.3041 32.2513 27.887 33.073 29.447C33.307 29.8939 33.4926 30.3646 33.6264 30.851C32.1497 31.3438 30.8533 32.2656 29.9029 33.4986C28.9525 34.7316 28.3912 36.22 28.2906 37.7735H24.7147C24.0474 36.7014 23.4034 35.616 22.7828 34.5172L24.1735 28.7368C24.2435 28.446 24.1951 28.1392 24.0389 27.8841C23.8828 27.6289 23.6316 27.4462 23.3408 27.3762C23.0499 27.3062 22.7432 27.3547 22.488 27.5108C22.2329 27.667 22.0502 27.9181 21.9802 28.209L21.178 31.5431C20.3816 29.9972 19.6304 28.4255 18.9243 26.8281L20.1811 22.4695C20.264 22.182 20.2293 21.8734 20.0846 21.6116C19.94 21.3497 19.6972 21.156 19.4098 21.0732C19.1224 20.9903 18.8138 21.025 18.5519 21.1696C18.29 21.3143 18.0964 21.557 18.0135 21.8444L17.5349 23.504C16.8419 21.7463 16.2065 19.9699 15.6287 18.1747C15.5843 18.0327 15.5122 17.9008 15.4165 17.7868C15.3208 17.6727 15.2036 17.5787 15.0714 17.5102C14.9393 17.4417 14.7948 17.4 14.6465 17.3876C14.4982 17.3752 14.3488 17.3922 14.2071 17.4378C14.0654 17.4833 13.9341 17.5565 13.8208 17.653C13.7075 17.7495 13.6144 17.8675 13.5469 18.0002C13.4794 18.1329 13.4389 18.2776 13.4276 18.4261C13.4163 18.5745 13.4345 18.7237 13.4812 18.865C14.4058 21.7372 15.4734 24.5613 16.68 27.3269C16.6882 27.3477 16.697 27.3681 16.7064 27.3883C16.7331 27.449 16.7591 27.5101 16.7857 27.571L14.5742 26.7442C14.4353 26.6916 14.2874 26.667 14.139 26.6717C13.9906 26.6765 13.8446 26.7105 13.7093 26.7718C13.5741 26.8331 13.4523 26.9205 13.3509 27.029C13.2495 27.1375 13.1705 27.265 13.1185 27.4041C13.0665 27.5432 13.0425 27.6912 13.0478 27.8396C13.0532 27.988 13.0877 28.1339 13.1496 28.2689C13.2114 28.4039 13.2993 28.5253 13.4082 28.6263C13.5171 28.7272 13.6449 28.8057 13.7842 28.8571L18.1276 30.4809C18.4834 31.2183 18.8485 31.9503 19.2231 32.6769C19.4734 33.1617 19.7289 33.6444 19.9895 34.1252L17.3137 33.1249C17.1748 33.0724 17.0269 33.0478 16.8785 33.0525C16.7301 33.0573 16.5841 33.0913 16.4488 33.1526C16.3136 33.2139 16.1918 33.3013 16.0904 33.4098C15.989 33.5183 15.9101 33.6458 15.8581 33.7849C15.8061 33.924 15.782 34.0719 15.7874 34.2203C15.7927 34.3687 15.8273 34.5146 15.8891 34.6496C15.951 34.7846 16.0389 34.9061 16.1478 35.0071C16.2567 35.108 16.3844 35.1865 16.5237 35.2379L21.7167 37.1793C21.8343 37.3778 21.9531 37.5756 22.0719 37.7735H11.7446C10.7878 36.3591 10.2201 34.8889 10.1372 33.586C10.0744 32.5953 10.2879 31.7926 10.5141 30.9429C10.8555 29.6602 11.2425 28.2066 10.5105 26.2906C9.81058 24.4569 8.56535 23.4753 7.56465 22.6865ZM55.0356 69.1722C55.0339 70.6495 54.4463 72.0658 53.4017 73.1104C52.3571 74.155 50.9408 74.7425 49.4635 74.7442H27.5365C26.0593 74.7425 24.643 74.1549 23.5984 73.1103C22.5538 72.0658 21.9662 70.6495 21.9646 69.1722V66.5774C24.0793 67.0694 26.2435 67.3174 28.4148 67.3162H48.5852C50.7561 67.3173 52.9201 67.0714 55.0354 66.5834L55.0356 69.1722ZM67.0829 57.399C63.983 60.5117 60.1456 62.7892 55.9283 64.0192C55.8799 64.0298 55.8322 64.0435 55.7856 64.0604C53.4434 64.7258 51.0202 65.0624 48.5853 65.0605H28.4148C14.3683 65.0605 2.87231 53.9327 2.27992 40.0295H74.7204C74.4562 46.5753 71.7282 52.7796 67.0829 57.399Z" fill="black"/>
</g>
<defs>
<clipPath id="clip0_160_4203">
<rect width="77" height="77" fill="white"/>
</clipPath>
</defs>
</svg>
