<svg width="73" height="73" viewBox="0 0 73 73" fill="none" xmlns="http://www.w3.org/2000/svg">
<g clip-path="url(#clip0_160_4383)">
<path d="M41.945 26.7959L2.91853 62.3021C2.83583 62.3848 2.77453 62.4476 2.69183 62.5303C2.1678 63.0499 1.75366 63.6696 1.47408 64.3526C1.19449 65.0355 1.05516 65.7678 1.0644 66.5057C1.07363 67.2436 1.23122 67.9721 1.52781 68.6479C1.82439 69.3236 2.25389 69.9328 2.79076 70.4391C3.32762 70.9455 3.96087 71.3386 4.65281 71.5952C5.34475 71.8518 6.08123 71.9665 6.81842 71.9326C7.55562 71.8986 8.27845 71.7167 8.9439 71.3977C9.60934 71.0787 10.2038 70.629 10.6919 70.0755L46.2024 31.0504" fill="white"/>
<path d="M43.044 27.8945L8.5534 65.7987C7.62712 66.8406 6.34113 67.4937 4.95342 67.627C3.5657 67.7602 2.17892 67.3638 1.07129 66.5173C1.08587 67.9469 1.66062 69.3137 2.67206 70.3242C3.20455 70.854 3.8396 71.2695 4.53832 71.5454C5.23703 71.8212 5.9847 71.9515 6.73552 71.9283C7.48635 71.905 8.22453 71.7288 8.90486 71.4103C9.58519 71.0918 10.1933 70.6378 10.6921 70.0761L46.2026 31.051L43.044 27.8945Z" fill="white"/>
<path d="M44.8009 40.9961L65.949 62.1426C66.4781 62.6716 66.8977 63.2996 67.1841 63.9908C67.4704 64.6821 67.6178 65.4229 67.6178 66.1711C67.6178 66.9193 67.4704 67.6601 67.1841 68.3513C66.8977 69.0425 66.4781 69.6706 65.949 70.1996C65.3929 70.7557 64.7276 71.1906 63.9952 71.477C63.2628 71.7634 62.479 71.8951 61.6932 71.8638C60.9073 71.8324 60.1365 71.6388 59.4292 71.295C58.7219 70.9511 58.0934 70.4646 57.5833 69.8661L38.4197 47.3769" fill="#C6DB7E"/>
<path d="M44.8009 40.9961L65.949 62.1426C66.4781 62.6716 66.8977 63.2996 67.1841 63.9908C67.4704 64.6821 67.6178 65.4229 67.6178 66.1711C67.6178 66.9193 67.4704 67.6601 67.1841 68.3513C66.8977 69.0425 66.4781 69.6706 65.949 70.1996C65.3929 70.7557 64.7276 71.1906 63.9952 71.477C63.2628 71.7634 62.479 71.8951 61.6932 71.8638C60.9073 71.8324 60.1365 71.6388 59.4292 71.295C58.7219 70.9511 58.0934 70.4646 57.5833 69.8661L38.4197 47.3769" fill="white"/>
<path d="M65.9488 62.1426L44.8008 40.9961L41.5928 44.2039L59.5328 62.1426C60.0619 62.6716 60.4816 63.2996 60.7679 63.9908C61.0543 64.6821 61.2016 65.4229 61.2016 66.1711C61.2016 66.9193 61.0543 67.6601 60.7679 68.3513C60.4816 69.0425 60.0619 69.6706 59.5328 70.1996C59.2803 70.4515 59.0048 70.6793 58.7099 70.88C59.807 71.6271 61.1304 71.9679 62.4519 71.8437C63.7734 71.7194 65.0101 71.138 65.9488 70.1996C66.4779 69.6706 66.8976 69.0425 67.1839 68.3513C67.4703 67.6601 67.6176 66.9193 67.6176 66.1711C67.6176 65.4229 67.4703 64.682 67.1839 63.9908C66.8976 63.2996 66.4779 62.6716 65.9488 62.1426Z" fill="white"/>
<path d="M44.8008 40.9961L36.4085 49.3878L14.4442 27.4252L13.3296 26.3107C10.0725 23.0539 7.61847 19.0835 6.16182 14.7139C4.70517 10.3443 4.28595 5.69548 4.93736 1.13576L44.8008 40.9961Z" fill="#F3A812"/>
<path d="M44.8008 40.9961L36.4085 49.3878L14.4442 27.4252L13.3296 26.3107C10.0725 23.0539 7.61847 19.0835 6.16182 14.7139C4.70517 10.3443 4.28595 5.69548 4.93736 1.13576L44.8008 40.9961Z" fill="#F0F0F0"/>
<path d="M57.6419 40.944C57.3212 42.9968 52.6665 43.6262 51.7757 45.3845C50.8524 47.2068 53.0752 51.3258 51.6626 52.7421C50.2359 54.1725 46.1009 51.9594 44.3035 52.8818C42.5239 53.795 41.9093 58.4507 39.8922 58.7741C37.9459 59.0861 35.9098 54.8776 33.857 54.5568C31.8043 54.2361 28.5815 57.6231 26.8232 56.7323C25.0009 55.809 25.8356 51.1877 24.4193 49.7752C22.9889 48.3485 18.3759 49.1948 17.4535 47.3974C16.5403 45.6178 19.9135 42.3731 19.5901 40.356C19.2781 38.4098 15.0372 36.3906 15.3579 34.3378C15.6786 32.285 20.3333 31.6556 21.2241 29.8973C22.1474 28.075 19.9246 23.9559 21.3372 22.5397C22.7639 21.1093 26.8989 23.3224 28.6963 22.4C30.4759 21.4868 31.0905 16.8311 33.1076 16.5077C35.0539 16.1957 37.09 20.4042 39.1428 20.725C41.1955 21.0457 44.4183 17.6587 46.1766 18.5495C47.9989 19.4728 47.1642 24.0941 48.5805 25.5066C50.0109 26.9333 54.6239 26.087 55.5463 27.8844C56.4595 29.664 53.0863 32.9087 53.4097 34.9258C53.7217 36.872 57.9626 38.8912 57.6419 40.944Z" fill="#F3A812"/>
<path d="M53.4097 34.9258C53.0863 32.9087 56.4595 29.664 55.5463 27.8844C54.6239 26.087 50.0109 26.9333 48.5805 25.5066C47.1642 24.0941 47.9989 19.4728 46.1765 18.5495C45.281 18.0958 44.0055 18.752 42.6982 19.4626C43.4806 21.1557 43.1633 24.3698 44.3031 25.5066C45.7335 26.9333 50.3465 26.087 51.2689 27.8844C52.1822 29.664 48.8089 32.9087 49.1323 34.9258C49.4444 36.872 53.6853 38.8912 53.3646 40.944C53.0439 42.9968 48.3891 43.6262 47.4983 45.3845C46.5751 47.2068 48.7979 51.3258 47.3853 52.7421C47.3472 52.7794 47.3071 52.8145 47.2649 52.8472C48.9795 53.148 50.8075 53.5994 51.6626 52.7421C53.0752 51.3259 50.8524 47.2068 51.7757 45.3845C52.6665 43.6262 57.3212 42.9968 57.6419 40.944C57.9626 38.8912 53.7217 36.872 53.4097 34.9258ZM24.4189 22.4C24.5055 22.3543 24.5881 22.3013 24.6658 22.2418C23.3817 22.0166 22.1608 21.8774 21.4575 22.4346C22.6035 22.6356 23.6989 22.7695 24.4189 22.4ZM34.8654 20.725C35.6589 20.8489 36.6273 20.4185 37.6182 19.8957C36.0847 18.5931 34.5707 16.2731 33.1076 16.5077C32.4268 16.6169 31.9061 17.2203 31.4461 18.0061C32.5721 19.1473 33.7161 20.5454 34.8654 20.725ZM29.5797 54.5568C28.5725 54.3995 27.2836 55.1346 26.0243 55.8192C26.1786 56.2058 26.4605 56.528 26.8232 56.7323C27.9019 57.2787 29.5315 56.2158 31.1042 55.3861C30.5978 54.9559 30.0892 54.6365 29.5797 54.5568ZM40.0262 52.8818C38.8472 53.4868 38.1793 55.7335 37.2764 57.2757C38.1615 58.1729 39.0356 58.9114 39.8922 58.7741C41.8128 58.4661 42.4627 54.2328 44.0567 53.04C42.5555 52.7768 40.9692 52.3978 40.0262 52.8818Z" fill="#F3A812"/>
<path d="M36.5001 51.0593C43.9108 51.0593 49.9184 45.0517 49.9184 37.641C49.9184 30.2302 43.9108 24.2227 36.5001 24.2227C29.0894 24.2227 23.0818 30.2302 23.0818 37.641C23.0818 45.0517 29.0894 51.0593 36.5001 51.0593Z" fill="#C6DB7E"/>
<path d="M36.5001 51.0593C43.9108 51.0593 49.9184 45.0517 49.9184 37.641C49.9184 30.2302 43.9108 24.2227 36.5001 24.2227C29.0894 24.2227 23.0818 30.2302 23.0818 37.641C23.0818 45.0517 29.0894 51.0593 36.5001 51.0593Z" fill="#F3A812"/>
<path d="M36.5 24.2227C35.7837 24.2227 35.0686 24.2796 34.3613 24.393C37.5087 24.9015 40.3722 26.5138 42.439 28.9413C44.5058 31.3687 45.6409 34.4528 45.6409 37.6409C45.6409 40.8291 44.5058 43.9131 42.439 46.3406C40.3722 48.768 37.5087 50.3804 34.3613 50.8888C36.1902 51.184 38.0604 51.0973 39.8541 50.6341C41.6478 50.171 43.3262 49.3415 44.7836 48.1978C46.241 47.0542 47.4457 45.6211 48.322 43.9889C49.1983 42.3568 49.7272 40.5608 49.8753 38.7142C50.0234 36.8676 49.7875 35.0103 49.1826 33.2593C48.5776 31.5084 47.6166 29.9016 46.3601 28.5403C45.1037 27.179 43.579 26.0926 41.882 25.3495C40.185 24.6064 38.3525 24.2227 36.5 24.2227Z" fill="#F3A812"/>
<path d="M59.9559 24.8857L72.6882 12.1534C72.8886 11.953 73.0012 11.6812 73.0012 11.3978C73.0012 11.1143 72.8886 10.8425 72.6882 10.6421C72.4877 10.4417 72.2159 10.3291 71.9325 10.3291C71.6491 10.3291 71.3772 10.4417 71.1768 10.6421L58.4303 23.3743L55.479 26.3257C54.5665 25.7696 53.2975 25.5986 52.0571 25.4417C51.1874 25.3277 50.1323 25.1851 49.5762 24.9142L67.5268 6.99211C67.6261 6.89287 67.7048 6.77506 67.7585 6.64541C67.8122 6.51575 67.8398 6.37678 67.8398 6.23644C67.8398 6.0961 67.8122 5.95714 67.7585 5.82748C67.7048 5.69782 67.6261 5.58001 67.5268 5.48078C67.4276 5.38154 67.3098 5.30283 67.1801 5.24912C67.0505 5.19542 66.9115 5.16777 66.7712 5.16777C66.6308 5.16777 66.4919 5.19542 66.3622 5.24912C66.2326 5.30283 66.1147 5.38154 66.0155 5.48078L48.735 22.747C48.7065 22.5046 48.6637 22.2765 48.6352 22.0484C48.3928 20.2234 48.1505 18.3413 46.6534 17.5857C46.6391 17.5714 46.6106 17.5714 46.5964 17.5571L47.8653 16.2882L47.8796 16.2739L62.3512 1.81652C62.4505 1.71729 62.5292 1.59948 62.5829 1.46982C62.6366 1.34016 62.6643 1.2012 62.6643 1.06086C62.6643 0.920518 62.6366 0.781552 62.5829 0.651895C62.5292 0.522238 62.4505 0.404429 62.3512 0.305194C62.252 0.205959 62.1342 0.127241 62.0045 0.0735352C61.8749 0.0198295 61.7359 -0.0078125 61.5956 -0.0078125C61.4552 -0.0078125 61.3163 0.0198295 61.1866 0.0735352C61.057 0.127241 60.9392 0.205959 60.8399 0.305194L46.3682 14.7769L46.354 14.7911L43.1032 18.0419C42.7325 18.2273 42.376 18.4269 42.0053 18.6122C41.0643 19.1255 39.8952 19.7528 39.2964 19.6673C38.6975 19.5675 37.7708 18.6122 37.0436 17.8423C35.8032 16.5448 34.52 15.2046 32.9374 15.447C31.2835 15.7036 30.485 17.4288 29.6866 19.097C29.2446 20.0237 28.6885 21.1929 28.2038 21.4495C27.9186 21.5921 27.4053 21.5921 26.835 21.5208L5.6907 0.376483C5.54879 0.236098 5.37068 0.137877 5.17623 0.0927678C4.98177 0.0476583 4.77861 0.0574319 4.58939 0.120999C4.40017 0.184567 4.23231 0.299431 4.10453 0.45279C3.97675 0.60615 3.89407 0.791979 3.8657 0.989569C3.19061 5.71529 3.62506 10.5333 5.13464 15.062C6.64422 19.5908 9.18746 23.7058 12.563 27.0814L16.8973 31.4157C15.6426 32.0716 14.502 32.8843 14.2882 34.196C14.0315 35.8642 15.4858 37.2472 16.769 38.4591C17.5104 39.1577 18.4372 40.0275 18.5227 40.555C18.6225 41.1396 17.9952 42.2944 17.4962 43.2212C16.6407 44.8181 15.7425 46.472 16.4981 47.9263C16.5672 48.0616 16.6483 48.1905 16.7405 48.3112L2.19753 61.4997C2.18327 61.514 2.16902 61.5282 2.15476 61.5282L1.92663 61.7564C0.695763 62.9961 0.00403318 64.6716 0.0018286 66.4187C-0.00338717 67.2816 0.162014 68.137 0.488522 68.9357C0.815031 69.7345 1.29621 70.4608 1.90438 71.0729C2.51256 71.6851 3.23574 72.171 4.03234 72.5027C4.82894 72.8344 5.68326 73.0054 6.54616 73.0058H6.73152C7.6305 72.9812 8.51506 72.7738 9.33132 72.3963C10.1476 72.0189 10.8784 71.4791 11.4794 70.8101L24.9387 56.0247C25.2239 56.7519 25.6374 57.3507 26.336 57.7071C27.776 58.4343 29.4014 57.5503 30.9841 56.6806C31.9251 56.1673 33.0942 55.54 33.693 55.6255C34.2919 55.7253 35.2186 56.6806 35.9458 57.4505C37.0864 58.6482 38.2555 59.8743 39.6671 59.8743C39.7958 59.8719 39.9243 59.8624 40.052 59.8458C41.7059 59.5892 42.5044 57.864 43.3028 56.1958C43.4454 55.9107 43.588 55.597 43.7448 55.2833L56.7622 70.5677C57.3527 71.2618 58.0775 71.8295 58.8928 72.2366C59.7082 72.6437 60.5974 72.8819 61.5071 72.9368C62.4168 72.9918 63.3282 72.8624 64.1867 72.5564C65.0451 72.2505 65.8329 71.7742 66.5028 71.1563C67.1726 70.5383 67.7107 69.7914 68.0848 68.9604C68.4588 68.1293 68.6611 67.2312 68.6795 66.3201C68.6979 65.4089 68.5321 64.5034 68.1919 63.6579C67.8517 62.8125 67.3442 62.0444 66.6999 61.3999L52.6702 47.3702C52.5846 46.7571 52.5704 46.1868 52.7272 45.8874C52.9696 45.4169 54.1102 44.8609 55.037 44.4331C56.6339 43.6775 58.4446 42.8077 58.7012 41.1396C58.9579 39.4714 57.5036 38.0884 56.2204 36.8765C55.479 36.1778 54.5522 35.3081 54.4667 34.7806C54.3669 34.196 54.9942 33.0411 55.4932 32.1144C56.2204 30.7741 56.9618 29.3911 56.7337 28.1222L59.9559 24.8857ZM14.0885 25.5415C10.9514 22.3994 8.58454 18.5734 7.17351 14.3634C6.00845 10.8566 5.52923 7.15835 5.76198 3.47043L23.2706 20.979C22.2298 20.922 21.2745 21.0788 20.5759 21.7775C19.421 22.9323 19.7632 24.7716 20.0911 26.5538C20.2907 27.5946 20.5188 28.8778 20.2622 29.4054C20.1053 29.7191 19.5493 30.0612 18.9219 30.3892L14.0885 25.5415ZM9.89675 69.3558C9.49067 69.8125 8.99517 70.181 8.44091 70.4386C7.88665 70.6961 7.28544 70.8371 6.67449 70.8528C6.07275 70.8701 5.47386 70.7638 4.91476 70.5407C4.35566 70.3175 3.84821 69.9822 3.4237 69.5554C3.0098 69.1458 2.68281 68.6568 2.46232 68.1179C2.24183 67.5789 2.13237 67.0009 2.1405 66.4187C2.13953 65.8349 2.25505 65.2567 2.48028 64.7181C2.70552 64.1795 3.03595 63.6913 3.45222 63.2819L3.66609 63.0681L18.6653 49.4234C19.4152 49.6107 20.1776 49.7442 20.9466 49.8226C21.9874 49.9509 23.2706 50.122 23.6698 50.5212C24.069 50.9204 24.2401 52.1894 24.3684 53.2159C24.3827 53.2872 24.3827 53.3585 24.3969 53.4298L9.89675 69.3558ZM53.212 50.9062L65.2028 62.8827C65.6428 63.324 65.9892 63.8495 66.2213 64.4279C66.4533 65.0062 66.5662 65.6254 66.5532 66.2485C66.5402 66.8715 66.4015 67.4854 66.1456 68.0536C65.8896 68.6217 65.5216 69.1324 65.0635 69.5549C64.6055 69.9774 64.0669 70.3031 63.4799 70.5125C62.893 70.7218 62.2699 70.8105 61.6478 70.7733C61.0258 70.7361 60.4177 70.5737 59.8599 70.2958C59.3021 70.0179 58.8062 69.6303 58.4018 69.1562L45.2419 53.715C45.8692 53.6579 46.8102 53.829 47.6087 53.9859C49.4052 54.3138 51.2587 54.656 52.4278 53.4868C53.0979 52.8167 53.2548 51.9042 53.212 50.9062ZM53.6112 31.0736C53.5542 31.1734 53.4971 31.2874 53.4401 31.3872C52.7843 32.6277 52.1712 33.8823 52.3565 35.08C52.5561 36.3347 53.6682 37.3755 54.7518 38.3878C55.5645 39.1577 56.6766 40.1986 56.5911 40.7546C56.5055 41.3107 55.1225 41.9665 54.1245 42.4513C52.7843 43.0929 51.4012 43.7487 50.8309 44.8751C50.2321 46.0443 50.5315 47.5841 50.8024 49.0812C50.9878 50.0792 51.2729 51.6048 50.9165 51.9612C50.5458 52.332 49.0202 52.0468 48.0079 51.8614C46.5251 51.5905 44.9852 51.3054 43.8304 51.9042C43.4482 52.1141 43.1095 52.3947 42.8323 52.7312C42.8038 52.7597 42.7895 52.7882 42.7753 52.8025C42.2192 53.4868 41.8057 54.3708 41.3923 55.2405C40.9503 56.1816 40.2802 57.6073 39.7384 57.6929C39.2536 57.7642 38.2128 56.6663 37.5141 55.9392C36.4591 54.8271 35.3612 53.6722 34.0352 53.4726C33.8844 53.4484 33.7316 53.4389 33.579 53.4441C32.3956 53.4441 31.1694 54.1142 29.9718 54.77C29.0878 55.2548 27.7475 55.9819 27.3198 55.7538C26.835 55.5114 26.6354 53.9573 26.4928 52.9165C26.2932 51.4337 26.0936 49.8939 25.1811 48.9956C24.2544 48.0831 22.7145 47.8835 21.2175 47.6839C20.476 47.5841 19.478 47.4558 18.8792 47.2134L18.7936 47.1706C18.6406 47.1142 18.5103 47.009 18.4229 46.8712C18.1948 46.415 18.9219 45.0605 19.4067 44.1622C20.1196 42.822 20.8753 41.439 20.6614 40.1558C20.4618 38.9011 19.3497 37.8603 18.2661 36.848C17.4534 36.078 16.3413 35.0372 16.4268 34.4812C16.5124 33.9251 17.8954 33.2693 18.8934 32.7845C18.9932 32.7275 19.1073 32.6847 19.2071 32.6277H19.2214C20.4475 32.0431 21.6594 31.4015 22.1727 30.3607C22.7716 29.1915 22.4721 27.6517 22.2012 26.1546C22.0159 25.1566 21.7307 23.631 22.0872 23.2745C22.4579 22.9038 23.9835 23.189 24.9958 23.3743C26.4786 23.6452 28.0184 23.9304 29.1733 23.3316C30.3139 22.747 30.9841 21.3497 31.6114 19.9952C32.0534 19.0542 32.7235 17.6284 33.2653 17.5429C33.7501 17.4716 34.7909 18.5695 35.4895 19.2966C36.5446 20.4087 37.6425 21.5636 38.9684 21.7632C39.4062 21.8246 39.8517 21.8004 40.2802 21.6919C41.1926 21.478 42.1194 20.979 43.0319 20.48C43.4169 20.2661 43.9016 20.0095 44.3436 19.7956C44.9139 19.539 45.4415 19.3679 45.6696 19.482C46.1544 19.7243 46.354 21.2784 46.4966 22.3193C46.6962 23.8021 46.8958 25.3419 47.8083 26.2402C48.735 27.1527 50.2749 27.3523 51.7719 27.5519C52.4136 27.6374 53.2548 27.7372 53.8536 27.9226C54.21 28.0366 54.4809 28.165 54.5807 28.3503C54.8231 28.8208 54.096 30.1753 53.6112 31.0736ZM42.2762 31.7152C42.0749 31.5165 41.8034 31.405 41.5206 31.405C41.2377 31.405 40.9662 31.5165 40.7649 31.7152L30.5848 41.8952C30.3861 42.0966 30.2747 42.368 30.2747 42.6509C30.2747 42.9338 30.3861 43.2052 30.5848 43.4066C30.684 43.506 30.8017 43.5849 30.9314 43.6387C31.0611 43.6925 31.2001 43.7202 31.3405 43.7202C31.4809 43.7202 31.6199 43.6925 31.7496 43.6387C31.8793 43.5849 31.997 43.506 32.0962 43.4066L42.2762 33.2265C42.4749 33.0252 42.5864 32.7537 42.5864 32.4708C42.5864 32.188 42.4749 31.9165 42.2762 31.7152ZM36.5018 23.1462C33.6368 23.1462 30.8361 23.9958 28.4539 25.5875C26.0717 27.1793 24.215 29.4417 23.1186 32.0886C22.0222 34.7356 21.7353 37.6482 22.2942 40.4582C22.8532 43.2682 24.2328 45.8494 26.2587 47.8753C28.2846 49.9011 30.8658 51.2808 33.6758 51.8397C36.4858 52.3987 39.3984 52.1118 42.0454 51.0154C44.6923 49.919 46.9547 48.0623 48.5464 45.6801C50.1382 43.2979 50.9878 40.4972 50.9878 37.6321C50.9823 33.7919 49.4544 30.1105 46.7389 27.395C44.0235 24.6796 40.3421 23.1516 36.5018 23.1462ZM36.5018 49.9794C34.0598 49.9794 31.6726 49.2553 29.6421 47.8985C27.6116 46.5418 26.029 44.6134 25.0944 42.3572C24.1599 40.1011 23.9154 37.6185 24.3918 35.2233C24.8682 32.8282 26.0442 30.6281 27.771 28.9013C29.4978 27.1745 31.6979 25.9986 34.093 25.5221C36.4881 25.0457 38.9708 25.2902 41.2269 26.2248C43.4831 27.1593 45.4115 28.7419 46.7682 30.7724C48.1249 32.8029 48.8491 35.1901 48.8491 37.6321C48.8453 40.9057 47.5432 44.0441 45.2285 46.3588C42.9138 48.6736 39.7754 49.9756 36.5018 49.9794ZM38.6975 39.8279C38.3995 40.1255 38.1631 40.4789 38.0017 40.868C37.8404 41.257 37.7572 41.6741 37.7571 42.0952C37.757 42.5164 37.8398 42.9335 38.001 43.3227C38.1621 43.7118 38.3983 44.0654 38.6961 44.3632C38.9939 44.6611 39.3475 44.8973 39.7367 45.0584C40.1258 45.2195 40.5429 45.3024 40.9641 45.3023C41.3853 45.3021 41.8023 45.219 42.1914 45.0576C42.5804 44.8963 42.9339 44.6598 43.2315 44.3618C43.5295 44.0642 43.766 43.7107 43.9273 43.3217C44.0887 42.9326 44.1718 42.5156 44.1719 42.0944C44.1721 41.6732 44.0892 41.2561 43.9281 40.867C43.767 40.4778 43.5308 40.1243 43.2329 39.8264C42.9351 39.5286 42.5815 39.2924 42.1924 39.1313C41.8032 38.9701 41.3861 38.8873 40.9649 38.8874C40.5438 38.8875 40.1267 38.9707 39.7377 39.132C39.3486 39.2934 38.9952 39.5298 38.6975 39.8279ZM41.7202 42.8505C41.5197 43.0504 41.248 43.1626 40.9649 43.1624C40.6817 43.1622 40.4102 43.0496 40.21 42.8494C40.0098 42.6492 39.8972 42.3777 39.897 42.0945C39.8968 41.8114 40.0089 41.5397 40.2089 41.3392C40.308 41.2397 40.4258 41.1609 40.5554 41.107C40.6851 41.0532 40.8241 41.0255 40.9645 41.0255C41.1049 41.0255 41.2439 41.0532 41.3736 41.107C41.5033 41.1609 41.6211 41.2397 41.7202 41.3392C41.9189 41.5405 42.0303 41.812 42.0303 42.0948C42.0303 42.3777 41.9189 42.6492 41.7202 42.8505ZM34.3061 35.4364C34.8289 34.9121 35.1537 34.2228 35.2253 33.4858C35.2969 32.7489 35.1109 32.0099 34.6988 31.3948C34.2868 30.7796 33.6742 30.3263 32.9655 30.112C32.2568 29.8978 31.4957 29.9358 30.8119 30.2197C30.128 30.5035 29.5637 31.0156 29.2151 31.6688C28.8664 32.322 28.755 33.0758 28.8997 33.802C29.0444 34.5281 29.4363 35.1816 30.0088 35.6512C30.5812 36.1208 31.2987 36.3775 32.0391 36.3775C32.4603 36.3775 32.8774 36.2943 33.2664 36.1329C33.6554 35.9714 34.0087 35.7347 34.3061 35.4364ZM31.2835 32.4138C31.3826 32.3144 31.5004 32.2355 31.63 32.1816C31.7597 32.1278 31.8987 32.1001 32.0391 32.1001C32.1795 32.1001 32.3186 32.1278 32.4482 32.1816C32.5779 32.2355 32.6957 32.3144 32.7948 32.4138C32.9935 32.6151 33.1049 32.8866 33.1049 33.1695C33.1049 33.4523 32.9935 33.7238 32.7948 33.9251C32.6956 34.0246 32.5778 34.1035 32.4481 34.1574C32.3184 34.2113 32.1793 34.2391 32.0388 34.2392C31.8983 34.2393 31.7592 34.2117 31.6294 34.158C31.4996 34.1043 31.3817 34.0256 31.2824 33.9262C31.183 33.8269 31.1043 33.709 31.0505 33.5792C30.9968 33.4494 30.9692 33.3102 30.9694 33.1698C30.9695 33.0293 30.9973 32.8902 31.0512 32.7605C31.1051 32.6308 31.184 32.513 31.2835 32.4138Z" fill="black"/>
</g>
<defs>
<clipPath id="clip0_160_4383">
<rect width="73" height="73" fill="white"/>
</clipPath>
</defs>
</svg>
