<svg width="97" height="97" viewBox="0 0 97 97" fill="none" xmlns="http://www.w3.org/2000/svg">
<g clip-path="url(#clip0_160_4316)">
<path d="M48.5 95.5791C74.5011 95.5791 95.5791 74.5011 95.5791 48.5C95.5791 22.4989 74.5011 1.4209 48.5 1.4209C22.4989 1.4209 1.4209 22.4989 1.4209 48.5C1.4209 74.5011 22.4989 95.5791 48.5 95.5791Z" fill="#F3A812"/>
<path d="M48.5 1.4209C47.5455 1.4209 46.5986 1.45273 45.6582 1.5088C70.3356 2.9782 89.8955 23.4534 89.8955 48.5C89.8955 73.5467 70.3356 94.0216 45.6582 95.4912C46.5986 95.5473 47.5455 95.5791 48.5 95.5791C74.5011 95.5791 95.5791 74.5011 95.5791 48.5C95.5791 22.4989 74.5011 1.4209 48.5 1.4209Z" fill="#F0F0F0"/>
<path d="M48.5 84.2119C68.2231 84.2119 84.2119 68.2231 84.2119 48.5C84.2119 28.7769 68.2231 12.7881 48.5 12.7881C28.7769 12.7881 12.7881 28.7769 12.7881 48.5C12.7881 68.2231 28.7769 84.2119 48.5 84.2119Z" fill="#F0F0F0"/>
<path d="M48.5 12.7881C47.5435 12.7881 46.5962 12.8258 45.6582 12.9012C64.0263 14.3543 78.5283 29.7648 78.5283 48.5C78.5283 67.2352 64.0263 82.6459 45.6582 84.0988C46.596 84.173 47.5433 84.2106 48.5 84.2119C68.1918 84.2119 84.2119 68.1918 84.2119 48.5C84.2119 28.8082 68.1918 12.7881 48.5 12.7881Z" fill="#F0F0F0"/>
<path d="M38.3396 27.3623H27.5974C26.0279 27.3623 24.7556 28.6346 24.7556 30.2041V40.9463C24.7556 42.5158 26.0279 43.7881 27.5974 43.7881H38.3396C39.9091 43.7881 41.1814 42.5158 41.1814 40.9463V30.2041C41.1814 28.6346 39.9091 27.3623 38.3396 27.3623Z" fill="#F3A812"/>
<path d="M38.3396 27.3623H32.656C33.4097 27.3623 34.1325 27.6617 34.6655 28.1946C35.1984 28.7276 35.4978 29.4504 35.4978 30.2041V40.9461C35.4978 41.6998 35.1984 42.4226 34.6655 42.9555C34.1325 43.4885 33.4097 43.7879 32.656 43.7879H38.3396C39.0933 43.7879 39.8161 43.4885 40.3491 42.9555C40.882 42.4226 41.1814 41.6998 41.1814 40.9461V30.2041C41.1814 29.4504 40.882 28.7276 40.3491 28.1946C39.8161 27.6617 39.0933 27.3623 38.3396 27.3623Z" fill="#F0F0F0"/>
<path d="M68.2136 49.6123H58.325C56.7555 49.6123 55.4832 50.8846 55.4832 52.4541V62.3428C55.4832 63.9123 56.7555 65.1846 58.325 65.1846H68.2136C69.7831 65.1846 71.0554 63.9123 71.0554 62.3428V52.4541C71.0554 50.8846 69.7831 49.6123 68.2136 49.6123Z" fill="#F3A812"/>
<path d="M68.2136 49.6123H62.53C63.2837 49.6123 64.0065 49.9117 64.5395 50.4446C65.0724 50.9776 65.3718 51.7004 65.3718 52.4541V62.3428C65.3718 63.0965 65.0724 63.8193 64.5395 64.3522C64.0065 64.8852 63.2837 65.1846 62.53 65.1846H68.2136C68.9673 65.1846 69.6901 64.8852 70.2231 64.3522C70.756 63.8193 71.0554 63.0965 71.0554 62.3428V52.4541C71.0554 51.7004 70.756 50.9776 70.2231 50.4446C69.6901 49.9117 68.9673 49.6123 68.2136 49.6123Z" fill="#F0F0F0"/>
<path d="M64.8578 25.5098H54.9236C53.3541 25.5098 52.0818 26.7821 52.0818 28.3516V38.2857C52.0818 39.8552 53.3541 41.1275 54.9236 41.1275H64.8578C66.4272 41.1275 67.6995 39.8552 67.6995 38.2857V28.3516C67.6995 26.7821 66.4272 25.5098 64.8578 25.5098Z" fill="#F3A812"/>
<path d="M64.8577 25.5098H59.1741C59.9278 25.5098 60.6506 25.8092 61.1835 26.3421C61.7165 26.875 62.0159 27.5979 62.0159 28.3516V38.2857C62.0159 39.0394 61.7165 39.7622 61.1835 40.2952C60.6506 40.8281 59.9278 41.1275 59.1741 41.1275H64.8577C65.6114 41.1275 66.3342 40.8281 66.8671 40.2952C67.4001 39.7622 67.6995 39.0394 67.6995 38.2857V28.3516C67.6995 27.5979 67.4001 26.875 66.8671 26.3421C66.3342 25.8092 65.6114 25.5098 64.8577 25.5098Z" fill="#F0F0F0"/>
<path d="M36.0871 58.6769C35.6028 57.6682 35.4496 56.5324 35.6491 55.4314C35.8486 54.3304 36.3908 53.3206 37.1982 52.546C38.5543 54.1369 39.2536 54.3678 39.6429 54.2132C40.2217 53.9832 40.0709 52.9193 40.9543 51.5484C41.3188 50.9871 41.7751 50.4911 42.304 50.0811C42.8451 50.4936 43.2698 51.0396 43.5366 51.6656C44.1513 53.1756 43.395 54.3991 44.0136 55.0127C44.2976 55.2942 44.9211 55.4971 46.4708 54.9521C46.5864 55.2558 47.2396 57.0645 46.2946 58.9429C44.8548 61.8052 40.2369 62.3576 37.816 60.7139C37.0804 60.188 36.4864 59.4882 36.0871 58.6769Z" fill="#F3A812"/>
<path d="M36.0583 54.3638C37.4849 56.9537 38.1355 57.4006 38.4643 57.2983C38.8416 57.1808 38.7849 56.3442 39.0399 55.2492C38.6441 54.9 38.0644 54.1183 37.1984 52.546C36.6272 53.101 36.1851 53.7749 35.9033 54.5198C35.9632 54.4572 36.0159 54.4048 36.0583 54.3638ZM46.4706 54.9521C44.363 56.2324 43.5839 56.2815 43.3018 56.0085C42.7265 55.4519 44.2618 53.6001 43.5366 51.6656C43.2831 51.032 42.8558 50.4827 42.304 50.0811C41.7738 50.4897 41.3173 50.9859 40.9543 51.5484C40.7519 51.8658 40.582 52.2028 40.4472 52.5544C40.6684 52.3172 40.9081 52.098 41.1641 51.8989C41.7158 52.3006 42.143 52.8499 42.3964 53.4836C43.1217 55.418 41.5863 57.2699 42.1617 57.8263C42.444 58.0993 43.223 58.0502 45.3309 56.7701C45.7352 57.8652 45.7589 59.0647 45.398 60.1749C45.7619 59.8158 46.0648 59.3996 46.2946 58.9429C47.2396 57.0645 46.5864 55.2558 46.4708 54.9521H46.4706Z" fill="#F3A812"/>
<path d="M22.866 54.9253C24.5373 54.9253 25.8921 53.5705 25.8921 51.8992C25.8921 50.2279 24.5373 48.873 22.866 48.873C21.1947 48.873 19.8398 50.2279 19.8398 51.8992C19.8398 53.5705 21.1947 54.9253 22.866 54.9253Z" fill="#F0F0F0"/>
<path d="M22.8661 48.873C22.5268 48.8737 22.1901 48.9316 21.8701 49.0443C22.4631 49.2504 22.9772 49.636 23.341 50.1476C23.7049 50.6592 23.9003 51.2714 23.9003 51.8992C23.9003 52.527 23.7049 53.1392 23.341 53.6508C22.9772 54.1624 22.4631 54.548 21.8701 54.754C22.2856 54.8991 22.7277 54.9517 23.1657 54.9083C23.6036 54.8648 24.0268 54.7264 24.4057 54.5025C24.7846 54.2787 25.11 53.9749 25.3594 53.6123C25.6088 53.2497 25.7761 52.837 25.8496 52.4031C25.923 51.9692 25.901 51.5245 25.7849 51.1001C25.6688 50.6756 25.4615 50.2815 25.1774 49.9454C24.8933 49.6093 24.5394 49.3392 24.1402 49.154C23.741 48.9688 23.3061 48.8729 22.8661 48.873Z" fill="#F0F0F0"/>
<path d="M48.5 77.7412C50.8542 77.7412 52.7627 75.8327 52.7627 73.4785C52.7627 71.1243 50.8542 69.2158 48.5 69.2158C46.1458 69.2158 44.2373 71.1243 44.2373 73.4785C44.2373 75.8327 46.1458 77.7412 48.5 77.7412Z" fill="#F3A812"/>
<path d="M48.5 69.2158C48.016 69.2155 47.5354 69.2979 47.0791 69.4593C47.9103 69.7531 48.6299 70.2974 49.1388 71.0173C49.6478 71.7371 49.9211 72.5969 49.9211 73.4785C49.9211 74.3601 49.6478 75.22 49.1388 75.9398C48.6299 76.6596 47.9103 77.2039 47.0791 77.4978C47.6644 77.7045 48.2877 77.781 48.9056 77.7218C49.5235 77.6626 50.121 77.4691 50.6563 77.155C51.1917 76.8409 51.652 76.4136 52.005 75.9031C52.3581 75.3926 52.5954 74.8111 52.7003 74.1993C52.8053 73.5875 52.7754 72.9602 52.6127 72.3612C52.45 71.7622 52.1585 71.206 51.7584 70.7313C51.3584 70.2567 50.8595 69.8752 50.2967 69.6134C49.7339 69.3517 49.1207 69.216 48.5 69.2158Z" fill="#F3A812"/>
<path d="M45.6582 23.9541C47.2277 23.9541 48.5 22.6818 48.5 21.1123C48.5 19.5428 47.2277 18.2705 45.6582 18.2705C44.0887 18.2705 42.8164 19.5428 42.8164 21.1123C42.8164 22.6818 44.0887 23.9541 45.6582 23.9541Z" fill="#F0F0F0"/>
<path d="M45.6583 18.2705C45.3015 18.2708 44.948 18.3387 44.6165 18.4704C45.1471 18.6791 45.6026 19.0427 45.9237 19.5139C46.2448 19.9852 46.4165 20.5422 46.4165 21.1124C46.4165 21.6826 46.2448 22.2396 45.9237 22.7109C45.6026 23.1821 45.1471 23.5457 44.6165 23.7544C45.0054 23.9078 45.4234 23.9735 45.8406 23.9468C46.2578 23.92 46.664 23.8016 47.0301 23.5998C47.3963 23.398 47.7134 23.1179 47.9589 22.7794C48.2043 22.441 48.372 22.0525 48.45 21.6418C48.5281 21.2311 48.5145 20.8082 48.4103 20.4033C48.306 19.9984 48.1137 19.6215 47.8471 19.2995C47.5804 18.9775 47.246 18.7183 46.8676 18.5405C46.4893 18.3626 46.0763 18.2704 45.6583 18.2705Z" fill="#F0F0F0"/>
<path d="M27.5974 45.2089H38.3393C39.4695 45.2076 40.553 44.7581 41.3521 43.959C42.1512 43.1598 42.6007 42.0764 42.602 40.9462V30.2042C42.6007 29.0741 42.1512 27.9906 41.3521 27.1915C40.553 26.3924 39.4695 25.9429 38.3393 25.9415H27.5974C26.4672 25.9429 25.3837 26.3924 24.5846 27.1915C23.7855 27.9906 23.336 29.0741 23.3347 30.2042V40.9462C23.336 42.0764 23.7855 43.1598 24.5846 43.959C25.3837 44.7581 26.4672 45.2076 27.5974 45.2089ZM26.1765 30.2042C26.1769 29.8275 26.3267 29.4663 26.5931 29.2C26.8595 28.9336 27.2206 28.7837 27.5974 28.7833H38.3393C38.7161 28.7837 39.0772 28.9336 39.3436 29.2C39.61 29.4663 39.7598 29.8275 39.7602 30.2042V40.9462C39.7598 41.323 39.61 41.6841 39.3436 41.9505C39.0772 42.2169 38.7161 42.3667 38.3393 42.3671H27.5974C27.2206 42.3667 26.8595 42.2169 26.5931 41.9505C26.3267 41.6841 26.1769 41.323 26.1765 40.9462V30.2042ZM45.6579 25.3745C46.501 25.3745 47.3252 25.1245 48.0261 24.6561C48.7271 24.1877 49.2735 23.522 49.5961 22.7431C49.9188 21.9642 50.0032 21.1071 49.8387 20.2802C49.6742 19.4533 49.2683 18.6938 48.6721 18.0976C48.076 17.5015 47.3164 17.0955 46.4895 16.931C45.6627 16.7666 44.8056 16.851 44.0267 17.1736C43.2478 17.4962 42.582 18.0426 42.1136 18.7436C41.6452 19.4446 41.3952 20.2687 41.3952 21.1118C41.3965 22.242 41.8461 23.3254 42.6452 24.1246C43.4443 24.9237 44.5278 25.3732 45.6579 25.3745ZM45.6579 19.6909C45.9389 19.6909 46.2137 19.7743 46.4473 19.9304C46.681 20.0865 46.8631 20.3084 46.9707 20.5681C47.0782 20.8277 47.1063 21.1134 47.0515 21.389C46.9967 21.6647 46.8614 21.9178 46.6627 22.1165C46.4639 22.3153 46.2108 22.4506 45.9351 22.5054C45.6595 22.5602 45.3738 22.5321 45.1142 22.4246C44.8545 22.317 44.6326 22.1349 44.4765 21.9012C44.3204 21.6676 44.237 21.3928 44.237 21.1118C44.2374 20.7351 44.3873 20.3739 44.6536 20.1075C44.92 19.8412 45.2812 19.6913 45.6579 19.6909ZM54.9233 42.5486H64.8575C65.9876 42.5473 67.0711 42.0978 67.8702 41.2987C68.6694 40.4995 69.1189 39.4161 69.1202 38.2859V28.3518C69.1189 27.2216 68.6694 26.1382 67.8702 25.339C67.0711 24.5399 65.9876 24.0904 64.8575 24.0891H54.9233C53.7932 24.0904 52.7097 24.5399 51.9106 25.339C51.1115 26.1382 50.6619 27.2216 50.6606 28.3518V38.2859C50.6619 39.4161 51.1115 40.4995 51.9106 41.2987C52.7097 42.0978 53.7932 42.5473 54.9233 42.5486ZM53.5024 28.3518C53.5028 27.975 53.6527 27.6139 53.919 27.3475C54.1854 27.0811 54.5466 26.9313 54.9233 26.9309H64.8575C65.2342 26.9313 65.5954 27.0811 65.8618 27.3475C66.1282 27.6139 66.278 27.975 66.2784 28.3518V38.2859C66.278 38.6627 66.1282 39.0238 65.8618 39.2902C65.5954 39.5566 65.2342 39.7064 64.8575 39.7068H54.9233C54.5466 39.7064 54.1854 39.5566 53.919 39.2902C53.6527 39.0238 53.5028 38.6627 53.5024 38.2859V28.3518ZM47.8662 39.9848C47.563 39.7609 47.1833 39.6666 46.8107 39.7226C46.438 39.7787 46.1028 39.9805 45.8789 40.2836C45.655 40.5868 45.5607 40.9665 45.6168 41.3392C45.6728 41.7118 45.8746 42.047 46.1778 42.2709C47.0832 42.9395 47.5888 43.6056 47.6811 44.2501C47.7334 44.6169 47.651 44.909 47.4884 45.4361C47.2047 46.2221 47.0891 47.0589 47.1493 47.8923C47.2681 49.2138 47.869 50.467 48.9358 51.6168C49.0628 51.7536 49.2154 51.864 49.385 51.9418C49.5546 52.0196 49.7379 52.0633 49.9243 52.0703C50.1108 52.0772 50.2968 52.0474 50.4718 51.9825C50.6467 51.9176 50.8072 51.8188 50.944 51.6919C51.0807 51.565 51.1912 51.4124 51.269 51.2428C51.3468 51.0732 51.3904 50.8899 51.3974 50.7034C51.4044 50.517 51.3746 50.3309 51.3096 50.156C51.2447 49.981 51.146 49.8206 51.0191 49.6838C50.3905 49.0063 50.0409 48.3184 49.9799 47.6387C49.9356 47.1446 50.0542 46.7602 50.2042 46.2737C50.3979 45.6451 50.639 44.8628 50.4943 43.8485C50.2904 42.4223 49.4063 41.1224 47.8662 39.9848ZM48.4997 67.7948C47.3756 67.7948 46.2767 68.1281 45.3421 68.7526C44.4074 69.3772 43.6789 70.2648 43.2488 71.3034C42.8186 72.3419 42.706 73.4847 42.9253 74.5872C43.1446 75.6897 43.6859 76.7024 44.4808 77.4973C45.2757 78.2921 46.2884 78.8335 47.3909 79.0527C48.4934 79.2721 49.6362 79.1595 50.6747 78.7293C51.7133 78.2991 52.6009 77.5707 53.2255 76.636C53.85 75.7013 54.1833 74.6025 54.1833 73.4784C54.1816 71.9715 53.5823 70.5269 52.5168 69.4613C51.4512 68.3958 50.0066 67.7965 48.4997 67.7948ZM48.4997 76.3202C47.9377 76.3202 47.3882 76.1535 46.9209 75.8412C46.4536 75.529 46.0893 75.0852 45.8742 74.5659C45.6592 74.0466 45.6029 73.4752 45.7125 72.924C45.8222 72.3727 46.0928 71.8663 46.4903 71.4689C46.8877 71.0715 47.3941 70.8008 47.9453 70.6912C48.4966 70.5815 49.068 70.6378 49.5872 70.8529C50.1065 71.068 50.5503 71.4322 50.8626 71.8996C51.1749 72.3669 51.3415 72.9163 51.3415 73.4784C51.3407 74.2318 51.041 74.9541 50.5082 75.4869C49.9755 76.0196 49.2532 76.3193 48.4997 76.3202ZM77.4823 45.7871C77.1402 45.0247 76.6418 44.3427 76.0193 43.7852C75.6262 43.3981 75.4153 43.1799 75.2874 42.8321C75.063 42.2207 75.1927 41.3947 75.673 40.3764C75.7526 40.2076 75.7982 40.0248 75.8071 39.8384C75.8161 39.652 75.7882 39.4657 75.7252 39.2901C75.6621 39.1145 75.5651 38.953 75.4397 38.8148C75.3142 38.6767 75.1628 38.5646 74.994 38.485C74.8252 38.4054 74.6424 38.3599 74.456 38.3509C74.2697 38.342 74.0833 38.3698 73.9077 38.4328C73.7321 38.4959 73.5706 38.5929 73.4325 38.7184C73.2943 38.8438 73.1823 38.9953 73.1027 39.164C72.2858 40.8962 72.1232 42.46 72.6199 43.8117C72.9733 44.7738 73.5564 45.348 74.0249 45.8095C74.3877 46.167 74.6742 46.4493 74.8693 46.9055C75.138 47.5328 75.1563 48.3042 74.9239 49.1984C74.8291 49.5632 74.883 49.9506 75.0739 50.2756C75.2648 50.6005 75.5769 50.8364 75.9416 50.9312C76.3064 51.026 76.6938 50.972 77.0188 50.7812C77.3437 50.5903 77.5796 50.2782 77.6744 49.9134C78.0688 48.3955 78.0042 47.0072 77.4821 45.7871H77.4823ZM48.4997 11.3673C28.0246 11.3673 11.3669 28.025 11.3669 48.5001C11.3669 68.9753 28.0246 85.6329 48.4997 85.6329C68.9749 85.6329 85.6325 68.9754 85.6325 48.5001C85.6325 28.0248 68.9749 11.3673 48.4997 11.3673ZM48.4997 82.7911C29.5915 82.7911 14.2087 67.4083 14.2087 48.5001C14.2087 29.5919 29.5915 14.2091 48.4997 14.2091C67.4079 14.2091 82.7907 29.5921 82.7907 48.5001C82.7907 67.4081 67.4079 82.7911 48.4997 82.7911ZM68.2133 48.1919H58.3246C57.1944 48.1932 56.111 48.6427 55.3118 49.4418C54.5127 50.241 54.0632 51.3244 54.0619 52.4546V62.3431C54.0632 63.4732 54.5127 64.5567 55.3118 65.3558C56.111 66.1549 57.1944 66.6045 58.3246 66.6058H68.2133C69.3434 66.6045 70.4269 66.1549 71.226 65.3558C72.0251 64.5567 72.4747 63.4732 72.476 62.3431V52.4546C72.4747 51.3244 72.0251 50.241 71.226 49.4418C70.4269 48.6427 69.3434 48.1932 68.2133 48.1919ZM69.6342 62.3431C69.6338 62.7198 69.4839 63.081 69.2176 63.3474C68.9512 63.6137 68.59 63.7636 68.2133 63.764H58.3246C57.9479 63.7636 57.5867 63.6137 57.3203 63.3474C57.0539 63.081 56.9041 62.7198 56.9037 62.3431V52.4546C56.9041 52.0778 57.0539 51.7167 57.3203 51.4503C57.5867 51.1839 57.9479 51.0341 58.3246 51.0337H68.2133C68.59 51.0341 68.9512 51.1839 69.2176 51.4503C69.4839 51.7167 69.6338 52.0778 69.6342 52.4546V62.3431ZM22.8658 47.4524C21.9862 47.4524 21.1264 47.7132 20.3951 48.2019C19.6638 48.6905 19.0938 49.3851 18.7572 50.1977C18.4207 51.0103 18.3326 51.9044 18.5042 52.767C18.6758 53.6297 19.0993 54.4221 19.7212 55.044C20.3432 55.6659 21.1356 56.0895 21.9982 56.2611C22.8608 56.4326 23.755 56.3446 24.5676 56.008C25.3802 55.6714 26.0747 55.1014 26.5633 54.3701C27.052 53.6388 27.3128 52.779 27.3128 51.8995C27.3114 50.7205 26.8425 49.5901 26.0088 48.7564C25.1751 47.9227 24.0448 47.4538 22.8658 47.4524ZM22.8658 53.5049C22.5483 53.5049 22.2379 53.4108 21.974 53.2344C21.71 53.058 21.5042 52.8073 21.3827 52.514C21.2612 52.2207 21.2294 51.8979 21.2914 51.5866C21.3533 51.2752 21.5061 50.9892 21.7306 50.7646C21.9551 50.5401 22.2411 50.3872 22.5525 50.3253C22.8639 50.2633 23.1866 50.2951 23.4799 50.4166C23.7733 50.538 24.024 50.7437 24.2004 51.0077C24.3768 51.2717 24.471 51.582 24.471 51.8995C24.4706 52.3251 24.3014 52.7332 24.0004 53.0342C23.6995 53.3352 23.2914 53.5044 22.8658 53.5049ZM82.7943 14.2053C73.6988 5.10978 61.3626 -1.77646e-05 48.4996 0C35.6365 1.77647e-05 23.3003 5.10985 14.2048 14.2054C5.10929 23.3009 -0.000506046 35.6371 -0.000488281 48.5002C-0.000470517 61.3632 5.10937 73.6994 14.2049 82.7949C23.3005 91.8905 35.6367 97.0003 48.4997 97.0003C61.3628 97.0003 73.699 91.8905 82.7945 82.7949C91.8901 73.6994 96.9999 61.3632 96.9999 48.5001C96.9999 35.6371 91.8899 23.3009 82.7943 14.2053ZM80.785 80.7854C72.2224 89.348 60.609 94.1584 48.4997 94.1584C36.3903 94.1583 24.7769 89.3479 16.2143 80.7853C7.65176 72.2227 2.84136 60.6093 2.84138 48.4999C2.84139 36.3906 7.65183 24.7772 16.2144 16.2146C24.7771 7.65206 36.3904 2.84166 48.4998 2.84168C60.6091 2.84169 72.2225 7.65213 80.7851 16.2147C89.3477 24.7774 94.1581 36.3907 94.1581 48.5001C94.1581 60.6094 89.3476 72.2228 80.785 80.7854ZM29.9039 66.4987C29.511 66.1115 29.3 65.8934 29.1721 65.5452C28.9476 64.9342 29.0774 64.1082 29.5574 63.0899C29.6395 62.9208 29.6873 62.7371 29.6979 62.5495C29.7085 62.3618 29.6818 62.1739 29.6193 61.9967C29.5568 61.8194 29.4598 61.6563 29.3338 61.5168C29.2078 61.3773 29.0554 61.2642 28.8854 61.184C28.7154 61.1039 28.5312 61.0582 28.3434 61.0497C28.1556 61.0413 27.9681 61.0701 27.7915 61.1346C27.615 61.1992 27.453 61.2981 27.315 61.4256C27.1769 61.5532 27.0655 61.7069 26.9873 61.8778C26.1702 63.6098 26.0078 65.1735 26.5046 66.5253C26.8579 67.4871 27.4411 68.0617 27.9096 68.5232C28.2724 68.8805 28.5588 69.1628 28.7542 69.6188C29.0226 70.2463 29.0408 71.0177 28.8085 71.9122C28.7604 72.0931 28.7486 72.2819 28.7736 72.4674C28.7987 72.653 28.8602 72.8318 28.9547 72.9936C29.0491 73.1553 29.1745 73.2968 29.3238 73.4098C29.4731 73.5229 29.6433 73.6054 29.8245 73.6524C30.0058 73.6995 30.1946 73.7103 30.38 73.6842C30.5654 73.658 30.7439 73.5955 30.9051 73.5002C31.0663 73.4048 31.207 73.2786 31.3193 73.1287C31.4315 72.9787 31.513 72.8081 31.559 72.6266C31.9533 71.1085 31.8887 69.7204 31.3667 68.5007C31.0248 67.7383 30.5265 67.0562 29.9041 66.4985L29.9039 66.4987ZM47.5636 59.5818C48.7193 57.2852 48.0358 55.0715 47.7987 54.4478C47.6669 54.1013 47.405 53.8201 47.0688 53.6639C46.7326 53.5078 46.3487 53.4892 45.9989 53.6121C45.7346 53.7087 45.4631 53.7846 45.1869 53.8391L45.1896 53.7946C45.2889 52.8922 45.1733 51.9791 44.8522 51.1299C44.4948 50.2749 43.9194 49.5287 43.1833 48.9658C42.9335 48.7688 42.6247 48.6613 42.3066 48.6607C41.9884 48.66 41.6792 48.7662 41.4286 48.9622C40.2929 49.8361 39.4434 51.0286 38.9884 52.3875C38.8012 52.2075 38.5665 51.9614 38.2795 51.6246C38.1537 51.477 37.9991 51.3567 37.8251 51.2712C37.6511 51.1856 37.4614 51.1366 37.2678 51.1271C37.0741 51.1175 36.8806 51.1478 36.699 51.2159C36.5175 51.284 36.3518 51.3885 36.2122 51.523C35.1898 52.5047 34.5034 53.7841 34.2507 55.1787C33.998 56.5734 34.192 58.0122 34.8049 59.2902C34.9184 59.5275 35.0459 59.7578 35.1867 59.98C35.6614 60.7235 36.2764 61.3674 36.9973 61.8759C37.6669 62.3415 38.4119 62.6882 39.1995 62.9004C39.1408 63.1229 39.0558 63.3376 38.9462 63.5398C38.7131 63.9635 38.4365 64.2045 38.0175 64.5695C37.4609 65.0298 36.96 65.5536 36.525 66.1301C35.4778 67.5462 34.8862 69.2791 34.7668 71.2813C34.7445 71.6574 34.8724 72.027 35.1225 72.3088C35.3726 72.5907 35.7244 72.7616 36.1006 72.784C36.1294 72.7859 36.158 72.7867 36.1866 72.7867C36.5486 72.7863 36.8968 72.6479 37.1602 72.3995C37.4235 72.1511 37.5822 71.8116 37.6037 71.4503C37.6897 70.0072 38.0955 68.7858 38.8098 67.82C39.1232 67.4097 39.4839 67.0378 39.8843 66.7121C40.5112 66.2152 41.0378 65.6037 41.436 64.91C41.7367 64.3578 41.946 63.7604 42.0555 63.1412C42.4405 63.1044 42.8222 63.0393 43.1977 62.9465C45.1699 62.4526 46.7206 61.2575 47.5636 59.5818ZM42.0231 60.285C41.9397 59.814 41.8288 59.3482 41.691 58.8901C41.5831 58.529 41.3361 58.2256 41.0045 58.0466C40.6729 57.8676 40.2838 57.8276 39.9227 57.9355C39.5616 58.0434 39.2582 58.2904 39.0792 58.622C38.9002 58.9536 38.8602 59.3427 38.9681 59.7038C38.9752 59.7269 38.981 59.7493 38.9877 59.7724C38.8659 59.7056 38.7478 59.6323 38.6339 59.5528C38.217 59.2592 37.8612 58.8873 37.5863 58.4578C37.506 58.331 37.4333 58.1996 37.3686 58.0643V58.0641C37.0196 57.3324 36.9056 56.5105 37.0424 55.7115C37.1014 55.3744 37.2051 55.0466 37.3506 54.7369C38.2048 55.4648 39.1703 55.9301 40.1674 55.5339C41.0949 55.1655 41.3592 54.3152 41.5523 53.6943C41.6826 53.2089 41.8835 52.7453 42.1485 52.3182C42.1725 52.2809 42.1971 52.244 42.2224 52.2073C42.4111 52.6747 42.3844 53.1131 42.3531 53.6207C42.3107 54.3158 42.2523 55.2674 43.0128 56.022C43.6806 56.6843 44.5843 56.776 45.3779 56.6851C45.3968 57.2458 45.2755 57.8024 45.0252 58.3045C44.5593 59.2304 43.6651 59.8999 42.5073 60.1901C42.3474 60.2299 42.1856 60.2612 42.0231 60.285ZM66.9191 69.8547H66.8714C65.3235 69.8547 64.0104 70.2592 62.9679 71.0572C62.3132 71.5764 61.7749 72.2273 61.3878 72.9678C61.1093 73.4441 60.9496 73.7023 60.6437 73.912C60.1069 74.2801 59.2745 74.3578 58.169 74.1432C57.8007 74.075 57.4203 74.1552 57.1107 74.3661C56.8011 74.577 56.5873 74.9016 56.5159 75.2693C56.4444 75.6371 56.5211 76.0182 56.7292 76.3297C56.9372 76.6412 57.2599 76.8579 57.627 76.9327C58.1691 77.0415 58.7204 77.0981 59.2734 77.1017C60.3289 77.1318 61.3682 76.8365 62.2502 76.2559C63.0958 75.6768 63.509 74.9699 63.8409 74.4021C64.098 73.9626 64.3009 73.6153 64.6949 73.3139C65.2303 72.9041 65.9624 72.6963 66.8717 72.6963L66.9117 72.6965C67.2886 72.6975 67.6504 72.5488 67.9176 72.283C68.1847 72.0172 68.3354 71.6562 68.3364 71.2794C68.3374 70.9025 68.1887 70.5407 67.9229 70.2736C67.6572 70.0064 67.2962 69.8557 66.9193 69.8547H66.9191Z" fill="black"/>
</g>
<defs>
<clipPath id="clip0_160_4316">
<rect width="97" height="97" fill="white"/>
</clipPath>
</defs>
</svg>
