<svg width="98" height="98" viewBox="0 0 98 98" fill="none" xmlns="http://www.w3.org/2000/svg">
<path d="M77.3937 29.5135L77.7966 30.1482C80.046 33.6924 82.7318 39.9029 83.6969 47.1807C84.6604 54.4464 83.903 62.7184 79.3507 70.4658L79.3493 70.4683C79.1594 70.7937 76.5305 75.1701 71.6689 79.4541C66.8102 83.7355 59.7869 87.8697 50.7762 87.8697C50.148 87.8697 49.5129 87.8499 48.8668 87.8066L48.8638 87.8064C37.6222 87.0857 27.3215 80.2014 22.6311 70.2994L22.6309 70.299C18.5974 61.7922 18.638 51.6902 22.6671 43.9621C25.8582 37.8419 30.7582 34.809 35.2907 32.0109L35.371 31.9614C40.2148 28.9751 44.6959 26.2125 47.056 19.7156C47.3786 18.844 47.6388 17.9535 47.878 17.135C47.8914 17.0891 47.9047 17.0434 47.918 16.998L77.3937 29.5135ZM77.3937 29.5135C75.7258 27.0725 74.5095 26.4516 73.3024 26.53C72.4667 26.61 71.9505 26.9984 71.5649 27.5262C71.1445 28.1016 70.8966 28.8187 70.659 29.5293L70.659 29.5294C70.2512 30.7484 69.6328 32.5838 68.1829 34.872L66.4333 37.6332L66.3386 34.3657C66.2215 30.3225 65.7897 24.9712 63.1008 19.5066L63.1005 19.5061C62.4775 18.2381 61.0531 15.587 59.1258 13.4113C57.151 11.1819 54.9337 9.76341 52.6854 10.2281L52.6789 10.2294C51.2636 10.5121 50.3256 11.3568 49.6031 12.571C48.8568 13.8251 48.3914 15.3869 47.9181 16.9979L77.3937 29.5135Z" fill="#F3A812" stroke="black" stroke-width="2"/>
<path d="M59.9035 59.8408L59.966 59.8487H60.029C60.4329 59.8487 60.9331 59.7871 61.5073 59.5125C62.0673 59.2446 62.6453 58.7994 63.2579 58.1097C63.7752 57.5333 64.5838 57.2919 65.3421 57.4847C66.0758 57.6811 66.6376 58.2635 66.8109 58.9984L66.8242 59.0629C67.6465 63.0511 67.9645 68.84 65.0312 74.1646C65.0312 74.1647 65.0312 74.1647 65.0312 74.1647C65.009 74.2039 64.6663 74.8055 64.0244 75.6919C63.359 76.6106 62.3791 77.8256 61.1094 79.0348C58.5587 81.4641 54.9267 83.7901 50.38 83.7901C50.0611 83.7901 49.7414 83.7787 49.4125 83.7558L49.4111 83.7557C43.7513 83.3689 38.5567 79.7141 36.2141 74.445L36.214 74.445C34.255 70.039 34.2556 64.6504 36.1535 60.7708C37.6308 57.7604 39.9553 56.2175 42.6759 54.4338L42.6783 54.4323L42.7447 54.3885C45.6295 52.4857 49.0926 50.2016 51.3066 45.6831L50.409 45.2432L51.3063 45.6838C51.6789 44.925 52.5224 44.4658 53.3462 44.5364C54.196 44.6139 54.9105 45.2091 55.1419 46.0352C55.8503 48.5668 55.8971 50.971 55.9298 53.0012L55.9298 53.0013C55.9608 54.912 56.1398 56.4096 56.6027 57.5133C57.1018 58.7036 57.9314 59.4311 59.1026 59.7316L59.1634 59.7472L59.2256 59.7551L59.9035 59.8408Z" fill="#FAF4E6" stroke="black" stroke-width="2"/>
</svg>
